<svg width="158" height="64" viewBox="0 0 158 64" fill="none" xmlns="http://www.w3.org/2000/svg">
<path d="M70.7735 12.0937V16.4824H66.6079V42.9517H62.1496V16.4824H57.9912V12.0937H70.7735Z" fill="#F6F6F6"/>
<path d="M87.1053 32.0002L88.545 42.9421H84.0435L83.1797 36.4009H78.635L77.7471 42.9517H73.2744L74.7141 32.0554L77.8647 12.0937H83.9643L87.1053 32.0002ZM82.6086 32.0002L80.9097 19.1699L79.2133 32.0002H82.6086Z" fill="#F6F6F6"/>
<path d="M102.829 33.2263L108.002 12.0937H112.451V42.9517H108.192V25.6318L104.382 42.9517H101.368L97.4517 25.6414V42.9517H93.1445V12.0937H97.5933L102.829 33.2263Z" fill="#F6F6F6"/>
<path d="M128.157 33.2263L133.33 12.0937H137.781V42.9517H133.52V25.6318L129.714 42.9517H126.698L122.784 25.6414V42.9517H118.465V12.0937H122.916L128.157 33.2263Z" fill="#F6F6F6"/>
<path d="M156.212 32.0002L157.652 42.9421H153.155L152.291 36.4009H147.746L146.866 42.9517H142.386L143.825 32.0554L146.976 12.0937H153.076L156.212 32.0002ZM151.715 32.0002L150.016 19.1699L148.32 32.0002H151.715Z" fill="#F6F6F6"/>
<path d="M102.829 33.2263L108.002 12.0937H112.451V42.9517H108.192V25.6318L104.382 42.9517H101.368L97.4517 25.6414V42.9517H93.1445V12.0937H97.5933L102.829 33.2263Z" fill="#F6F6F6"/>
<path d="M128.157 33.2263L133.33 12.0937H137.781V42.9517H133.52V25.6318L129.714 42.9517H126.698L122.784 25.6414V42.9517H118.465V12.0937H122.916L128.157 33.2263Z" fill="#F6F6F6"/>
<path d="M156.212 32.0002L157.652 42.9421H153.155L152.291 36.4009H147.746L146.866 42.9517H142.386L143.825 32.0554L146.976 12.0937H153.076L156.212 32.0002ZM151.715 32.0002L150.016 19.1699L148.32 32.0002H151.715Z" fill="#F6F6F6"/>
<path d="M64.4608 56.5618C63.7721 56.5696 63.0881 56.4467 62.4452 56.1995C61.8498 55.9708 61.3063 55.6248 60.8471 55.1821C60.3961 54.7441 60.0385 54.2192 59.7961 53.6392C59.2971 52.3948 59.2971 51.0059 59.7961 49.7615C60.0398 49.1839 60.4001 48.6627 60.8543 48.2306C61.317 47.7888 61.8626 47.443 62.4596 47.2132C63.1017 46.9662 63.7849 46.8433 64.4728 46.8509C65.155 46.8423 65.8331 46.9578 66.474 47.1916C67.0659 47.41 67.5972 47.7662 68.0241 48.2306L67.3954 48.8713C67.0236 48.4897 66.571 48.1961 66.0709 48.0123C65.5707 47.8364 65.0438 47.7487 64.5136 47.7531C63.9561 47.7463 63.4023 47.8456 62.8819 48.0459C62.4006 48.2324 61.9616 48.5135 61.5907 48.8724C61.2198 49.2314 60.9245 49.661 60.7223 50.1359C60.3127 51.1445 60.3127 52.2731 60.7223 53.2817C60.9224 53.7587 61.2169 54.1903 61.588 54.5507C61.9591 54.9111 62.3992 55.1928 62.8819 55.3788C63.3988 55.5764 63.9483 55.6749 64.5016 55.6692C65.0279 55.6738 65.5514 55.5927 66.0517 55.4292C66.5551 55.2533 67.0138 54.969 67.3954 54.5966L67.9689 55.3596C67.5021 55.7662 66.9588 56.0754 66.3708 56.2691C65.7542 56.4692 65.1091 56.5681 64.4608 56.5618ZM66.9995 55.2229V51.7004H67.9593V55.3452L66.9995 55.2229Z" fill="#F6F6F6"/>
<path d="M82.2656 56.4802V46.9205H85.8433C86.5595 46.9023 87.2715 47.0348 87.9333 47.3092C88.4832 47.541 88.9518 47.931 89.2795 48.4298C89.6087 48.9597 89.7756 49.5745 89.7594 50.1982C89.7743 50.8127 89.6073 51.4179 89.2795 51.9379C88.9525 52.4372 88.4837 52.8274 87.9333 53.0585C87.2715 53.3329 86.5595 53.4653 85.8433 53.4472H82.8271L83.2782 52.9841V56.4802H82.2656ZM83.2782 53.0657L82.8271 52.5858H85.8169C86.7768 52.5858 87.503 52.3762 87.9957 51.9571C88.2312 51.7267 88.4183 51.4516 88.5461 51.1479C88.6738 50.8442 88.7396 50.5181 88.7396 50.1886C88.7396 49.8592 88.6738 49.533 88.5461 49.2293C88.4183 48.9257 88.2312 48.6505 87.9957 48.4202C87.499 48.0026 86.772 47.7915 85.8169 47.7915H82.8271L83.2782 47.3116V53.0657ZM88.7972 56.4802L86.3376 53.0105H87.4294L89.9033 56.4802H88.7972Z" fill="#F6F6F6"/>
<path d="M107.76 56.5618C107.076 56.5688 106.397 56.4458 105.759 56.1995C105.162 55.9705 104.619 55.6218 104.163 55.1749C103.713 54.7353 103.355 54.2108 103.11 53.632C102.611 52.3926 102.611 51.0081 103.11 49.7687C103.355 49.1898 103.713 48.6654 104.163 48.2258C104.618 47.7794 105.159 47.4308 105.754 47.2012C107.044 46.7181 108.464 46.7181 109.754 47.2012C110.346 47.4353 110.885 47.7853 111.34 48.2306C111.792 48.6679 112.15 49.193 112.391 49.7735C112.893 51.0173 112.893 52.4074 112.391 53.6512C112.149 54.23 111.791 54.7533 111.34 55.1893C110.883 55.6308 110.342 55.9767 109.749 56.2067C109.115 56.4504 108.44 56.5709 107.76 56.5618ZM107.76 55.6596C108.304 55.6646 108.844 55.5653 109.351 55.3668C109.826 55.1783 110.258 54.895 110.62 54.5342C110.98 54.1744 111.266 53.7471 111.46 53.2768C111.86 52.2639 111.86 51.1368 111.46 50.1238C111.266 49.6532 110.981 49.2258 110.62 48.8665C110.258 48.5056 109.826 48.2223 109.351 48.0338C108.844 47.8343 108.304 47.7348 107.76 47.7411C107.213 47.7353 106.671 47.8347 106.162 48.0338C105.684 48.221 105.249 48.5044 104.885 48.8665C104.139 49.6208 103.72 50.6391 103.72 51.7003C103.72 52.7615 104.139 53.7799 104.885 54.5342C105.249 54.8962 105.684 55.1796 106.162 55.3668C106.671 55.5679 107.213 55.6705 107.76 55.6692V55.6596Z" fill="#F6F6F6"/>
<path d="M130.333 56.5618C129.111 56.5618 128.151 56.2115 127.453 55.5108C126.756 54.8101 126.406 53.7703 126.402 52.3914V46.9205H127.417V52.3554C127.417 53.4848 127.672 54.3174 128.183 54.8533C128.693 55.3892 129.413 55.658 130.342 55.6596C131.28 55.6596 132.004 55.3908 132.514 54.8533C133.024 54.3158 133.279 53.4832 133.277 52.3554V46.9205H134.261V52.3962C134.261 53.7703 133.913 54.8101 133.217 55.5156C132.521 56.2211 131.56 56.5698 130.333 56.5618Z" fill="#F6F6F6"/>
<path d="M148.739 56.4802V46.9205H152.317C153.033 46.9023 153.745 47.0348 154.407 47.3092C154.956 47.541 155.424 47.9311 155.751 48.4298C156.08 48.9597 156.247 49.5745 156.231 50.1982C156.246 50.8127 156.079 51.4179 155.751 51.9379C155.424 52.4381 154.956 52.8304 154.407 53.0657C153.746 53.3449 153.034 53.4798 152.317 53.4616H149.298L149.749 52.9817V56.4778L148.739 56.4802ZM149.749 53.0657L149.298 52.5738H152.291C153.25 52.5738 153.97 52.3674 154.467 51.9523C154.717 51.7365 154.915 51.4661 155.044 51.162C155.173 50.8579 155.231 50.5282 155.213 50.1982C155.232 49.865 155.174 49.5319 155.045 49.2242C154.916 48.9165 154.718 48.6424 154.467 48.4226C153.973 48.005 153.246 47.7939 152.291 47.7939H149.298L149.749 47.314V53.0657Z" fill="#F6F6F6"/>
<path d="M64.4608 56.5618C63.7721 56.5696 63.0881 56.4467 62.4452 56.1995C61.8498 55.9708 61.3063 55.6248 60.8471 55.1821C60.3961 54.7441 60.0385 54.2192 59.7961 53.6392C59.2971 52.3948 59.2971 51.0059 59.7961 49.7615C60.0398 49.1839 60.4001 48.6627 60.8543 48.2306C61.317 47.7888 61.8626 47.443 62.4596 47.2132C63.1017 46.9662 63.7849 46.8433 64.4728 46.8509C65.155 46.8423 65.8331 46.9578 66.474 47.1916C67.0659 47.41 67.5972 47.7662 68.0241 48.2306L67.3954 48.8713C67.0236 48.4897 66.571 48.1961 66.0709 48.0123C65.5707 47.8364 65.0438 47.7487 64.5136 47.7531C63.9561 47.7463 63.4023 47.8456 62.8819 48.0459C62.4006 48.2324 61.9616 48.5135 61.5907 48.8724C61.2198 49.2314 60.9245 49.661 60.7223 50.1359C60.3127 51.1445 60.3127 52.2731 60.7223 53.2817C60.9224 53.7587 61.2169 54.1903 61.588 54.5507C61.9591 54.9111 62.3992 55.1928 62.8819 55.3788C63.3988 55.5764 63.9483 55.6749 64.5016 55.6692C65.0279 55.6738 65.5514 55.5927 66.0517 55.4292C66.5551 55.2533 67.0138 54.969 67.3954 54.5966L67.9689 55.3596C67.5021 55.7662 66.9588 56.0754 66.3708 56.2691C65.7542 56.4692 65.1091 56.5681 64.4608 56.5618ZM66.9995 55.2229V51.7004H67.9593V55.3452L66.9995 55.2229Z" fill="#F6F6F6"/>
<path d="M82.2656 56.4802V46.9205H85.8433C86.5595 46.9023 87.2715 47.0348 87.9333 47.3092C88.4832 47.541 88.9518 47.931 89.2795 48.4298C89.6087 48.9597 89.7756 49.5745 89.7594 50.1982C89.7743 50.8127 89.6073 51.4179 89.2795 51.9379C88.9525 52.4372 88.4837 52.8274 87.9333 53.0585C87.2715 53.3329 86.5595 53.4653 85.8433 53.4472H82.8271L83.2782 52.9841V56.4802H82.2656ZM83.2782 53.0657L82.8271 52.5858H85.8169C86.7768 52.5858 87.503 52.3762 87.9957 51.9571C88.2312 51.7267 88.4183 51.4516 88.5461 51.1479C88.6738 50.8442 88.7396 50.5181 88.7396 50.1886C88.7396 49.8592 88.6738 49.533 88.5461 49.2293C88.4183 48.9257 88.2312 48.6505 87.9957 48.4202C87.499 48.0026 86.772 47.7915 85.8169 47.7915H82.8271L83.2782 47.3116V53.0657ZM88.7972 56.4802L86.3376 53.0105H87.4294L89.9033 56.4802H88.7972Z" fill="#F6F6F6"/>
<path d="M107.76 56.5618C107.076 56.5688 106.397 56.4458 105.759 56.1995C105.162 55.9705 104.619 55.6218 104.163 55.1749C103.713 54.7353 103.355 54.2108 103.11 53.632C102.611 52.3926 102.611 51.0081 103.11 49.7687C103.355 49.1898 103.713 48.6654 104.163 48.2258C104.618 47.7794 105.159 47.4308 105.754 47.2012C107.044 46.7181 108.464 46.7181 109.754 47.2012C110.346 47.4353 110.885 47.7853 111.34 48.2306C111.792 48.6679 112.15 49.193 112.391 49.7735C112.893 51.0173 112.893 52.4074 112.391 53.6512C112.149 54.23 111.791 54.7533 111.34 55.1893C110.883 55.6308 110.342 55.9767 109.749 56.2067C109.115 56.4504 108.44 56.5709 107.76 56.5618ZM107.76 55.6596C108.304 55.6646 108.844 55.5653 109.351 55.3668C109.826 55.1783 110.258 54.895 110.62 54.5342C110.98 54.1744 111.266 53.7471 111.46 53.2768C111.86 52.2639 111.86 51.1368 111.46 50.1238C111.266 49.6532 110.981 49.2258 110.62 48.8665C110.258 48.5056 109.826 48.2223 109.351 48.0338C108.844 47.8343 108.304 47.7348 107.76 47.7411C107.213 47.7353 106.671 47.8347 106.162 48.0338C105.684 48.221 105.249 48.5044 104.885 48.8665C104.139 49.6208 103.72 50.6391 103.72 51.7003C103.72 52.7615 104.139 53.7799 104.885 54.5342C105.249 54.8962 105.684 55.1796 106.162 55.3668C106.671 55.5679 107.213 55.6705 107.76 55.6692V55.6596Z" fill="#F6F6F6"/>
<path d="M130.333 56.5618C129.111 56.5618 128.151 56.2115 127.453 55.5108C126.756 54.8101 126.406 53.7703 126.402 52.3914V46.9205H127.417V52.3554C127.417 53.4848 127.672 54.3174 128.183 54.8533C128.693 55.3892 129.413 55.658 130.342 55.6596C131.28 55.6596 132.004 55.3908 132.514 54.8533C133.024 54.3158 133.279 53.4832 133.277 52.3554V46.9205H134.261V52.3962C134.261 53.7703 133.913 54.8101 133.217 55.5156C132.521 56.2211 131.56 56.5698 130.333 56.5618Z" fill="#F6F6F6"/>
<path d="M148.739 56.4802V46.9205H152.317C153.033 46.9023 153.745 47.0348 154.407 47.3092C154.956 47.541 155.424 47.9311 155.751 48.4298C156.08 48.9597 156.247 49.5745 156.231 50.1982C156.246 50.8127 156.079 51.4179 155.751 51.9379C155.424 52.4381 154.956 52.8304 154.407 53.0657C153.746 53.3449 153.034 53.4798 152.317 53.4616H149.298L149.749 52.9817V56.4778L148.739 56.4802ZM149.749 53.0657L149.298 52.5738H152.291C153.25 52.5738 153.97 52.3674 154.467 51.9523C154.717 51.7365 154.915 51.4661 155.044 51.162C155.173 50.8579 155.231 50.5282 155.213 50.1982C155.232 49.865 155.174 49.5319 155.045 49.2242C154.916 48.9165 154.718 48.6424 154.467 48.4226C153.973 48.005 153.246 47.7939 152.291 47.7939H149.298L149.749 47.314V53.0657Z" fill="#F6F6F6"/>
<path d="M20.7389 59.5084C20.7918 59.5681 20.8272 59.6411 20.8413 59.7195C20.8555 59.798 20.8477 59.8788 20.819 59.9531C20.7902 60.0275 20.7416 60.0924 20.6784 60.141C20.6152 60.1895 20.5398 60.2197 20.4606 60.2283C19.6376 60.2979 18.9273 59.9211 18.217 59.6836C13.5019 58.1047 9.36035 55.6452 6.38493 51.5516C4.65247 49.1664 3.85342 46.4862 3.87742 43.4915C3.947 34.2749 3.91821 25.0583 3.92061 15.8417C3.92061 15.2778 3.88222 14.7139 3.83183 14.162C3.79583 13.7421 3.87502 13.3006 4.34293 13.2886C4.81084 13.2766 4.84443 13.7277 4.84683 14.1069C4.84683 16.0745 4.87802 18.0421 4.87562 20.0097C4.87562 27.7986 4.9764 35.5923 4.78924 43.3788C4.66926 48.2738 7.0592 51.6596 10.5985 54.491C13.4287 56.7228 16.7001 58.329 20.1966 59.2037C20.4022 59.2529 20.59 59.3584 20.7389 59.5084Z" fill="#F6F6F6"/>
<path d="M40.8473 29.2167V14.5796C40.8473 14.414 40.8329 14.2508 40.8473 14.0997C40.8809 13.7445 40.8473 13.2526 41.3488 13.2886C41.7135 13.315 41.7543 13.7493 41.7591 14.0805C41.7735 14.8987 41.7759 15.7193 41.7735 16.54C41.7735 25.3511 41.7279 34.1622 41.7543 42.9732C41.7687 47.1628 40.2018 50.7261 37.3799 53.6704C35.3307 55.806 32.7584 57.3153 30.0254 58.503C28.5856 59.1269 25.5766 59.9715 25.5766 59.9715C25.5766 59.9715 24.7248 60.2115 24.6168 59.7892C24.4632 59.2685 25.0271 59.3525 25.3367 59.2253C27.5754 58.3231 29.9126 57.5984 32.0098 56.437C35.238 54.657 37.8746 51.9711 39.5947 48.7105C40.7321 46.5917 40.8545 44.317 40.8449 41.9918C40.8257 37.7303 40.8449 33.4663 40.8449 29.2047L40.8473 29.2167Z" fill="#F6F6F6"/>
<path d="M0.928269 31.0092C0.928269 35.6811 0.793896 40.3673 0.973861 45.0248C1.10104 48.3146 2.41358 51.242 4.51077 53.8599C8.06448 58.2943 12.8084 60.7082 18.1017 62.2895C18.8672 62.5294 19.6782 62.5438 20.4269 62.899C20.7604 63.0597 21.1779 63.0117 21.0939 63.542C20.986 64.2139 20.4269 63.9716 20.1197 63.89C18.7568 63.5372 17.4083 63.1221 16.0669 62.6902C10.9823 61.0849 6.66075 58.3087 3.45738 54.0159C1.41537 51.2804 -0.0627379 48.1226 0.0020495 44.7153C0.172416 36.233 -0.0291444 27.765 0.119627 19.2922C0.131624 18.5124 0.119627 17.7349 0.0908322 16.9551C0.0908322 16.5688 0.0908322 16.0673 0.510751 16.0577C1.04585 16.0433 0.990657 16.5784 0.990657 16.9887C0.990657 20.7208 0.985058 24.4512 0.973861 28.1801V31.0092H0.928269Z" fill="#F6F6F6"/>
<path d="M7.98265 11.0738C7.98265 10.7019 7.92506 10.1476 8.34498 10.1668C8.87288 10.1884 8.82488 10.7691 8.84168 11.2154C9.01205 20.3984 9.08163 29.5815 8.84168 38.7645C8.79609 40.6457 8.64492 42.5581 8.91367 44.4034C9.31679 47.1436 11.1284 49.1233 13.1632 50.8821C15.3084 52.7274 17.8039 53.9631 20.4242 54.9613C20.8226 55.1125 21.2809 55.2013 21.0577 55.7604C20.8345 56.3195 20.4098 56.0459 20.0331 55.9043C15.1285 54.0471 10.8381 51.4196 8.47935 46.4694C8.06746 45.5942 7.8544 44.6387 7.85547 43.6715C7.85547 38.2614 7.85547 32.8504 7.85547 27.4387L7.98265 11.0738Z" fill="#F6F6F6"/>
<path d="M45.5122 20.2089C45.5122 19.1003 45.5122 17.9941 45.4882 16.8879C45.4882 16.5328 45.337 16.2281 44.9315 16.2041C44.406 16.1681 44.4972 16.5856 44.4948 16.8903C44.4804 17.9893 44.6387 19.0883 44.6435 20.1777C44.6883 27.8866 44.6883 35.5971 44.6435 43.3092C44.6003 49.1569 41.8721 53.6824 37.4449 57.2889C35.7811 58.6178 33.9303 59.694 31.9524 60.4827C29.6919 61.4563 27.3668 62.2725 24.9937 62.9254C24.701 63.0022 24.2379 62.8966 24.3291 63.4053C24.4203 63.914 25.1449 63.6788 25.1449 63.6788C25.1449 63.6788 27.1005 63.2445 28.0531 62.959C32.6962 61.5816 36.9314 59.5108 40.3412 55.9259C43.5367 52.6504 45.3606 48.2781 45.4402 43.7027C45.5649 39.4004 45.4666 35.0908 45.4666 30.786L45.5122 20.2089Z" fill="#F6F6F6"/>
<path d="M12 25.1543C12 19.373 12 13.5925 12 7.81286C12 7.44813 11.7816 6.85305 12.4487 6.90104C13.0054 6.93223 12.9286 7.47213 12.9286 7.86085C12.9454 10.0732 12.9646 12.288 12.9646 14.5004C12.9742 23.8889 12.9742 33.2767 12.9646 42.6637C12.9828 43.479 13.2602 44.2673 13.7565 44.9144C15.3641 47.23 17.4925 48.9361 19.9952 50.2054C20.4272 50.4262 21.2598 50.6133 20.9911 51.1916C20.6791 51.8587 20.0024 51.3284 19.5273 51.1028C16.6065 49.7233 14.1781 47.4825 12.5687 44.6817C12.194 44.0555 11.999 43.3382 12.0048 42.6085C12.0288 36.7872 12.0048 30.966 12.0048 25.1447L12 25.1543Z" fill="#F6F6F6"/>
<path d="M33.6794 25.0343C33.6794 30.3661 33.641 35.6979 33.6962 41.0272C33.7226 43.7123 32.4293 45.7903 30.7664 47.6427C29.6386 48.8977 28.1533 49.8023 26.644 50.5918C26.429 50.6916 26.2087 50.7797 25.9841 50.8557C25.9841 50.8557 25.0963 51.2924 24.9091 50.7381C24.7604 50.2846 25.3291 50.2582 25.629 50.1095C28.0855 48.9386 30.1706 47.1117 31.6542 44.8305C32.3929 43.6558 32.7754 42.2923 32.7556 40.9049C32.7412 30.0382 32.7484 19.1715 32.7772 8.30479C32.7772 7.82489 32.4701 6.98505 33.1419 6.95385C34.001 6.91306 33.6722 7.80809 33.6746 8.30959C33.6986 13.8861 33.689 19.4626 33.689 25.0391L33.6794 25.0343Z" fill="#F6F6F6"/>
<path d="M16.1529 22.3013C16.1529 16.272 16.1529 10.2412 16.1529 4.20879C16.1529 3.84646 15.9129 3.21538 16.4888 3.20098C17.2087 3.17939 16.8895 3.87285 16.9039 4.25198C17.2998 15.8129 17.0383 27.3787 17.0383 38.942C17.0383 41.6055 18.2165 43.3212 20.2057 44.7441C20.4898 44.9018 20.7575 45.0875 21.0047 45.2984C21.1029 45.4072 21.1583 45.5479 21.1605 45.6945C21.1627 45.841 21.1116 45.9833 21.0167 46.095C20.8368 46.311 20.5656 46.239 20.364 46.0734C18.0821 44.2042 15.9897 42.359 16.1073 38.9132C16.292 33.3943 16.1553 27.8394 16.1553 22.3013H16.1529Z" fill="#F6F6F6"/>
<path d="M37.6748 11.501C37.6748 11.213 37.6748 10.9251 37.6604 10.6395C37.646 10.354 37.6028 10.0325 37.1997 10.0588C36.8781 10.0804 36.8446 10.3468 36.8326 10.5987C36.8326 10.8027 36.8326 11.0091 36.8326 11.213C36.8166 21.6302 36.8014 32.0474 36.787 42.4646C36.766 44.2173 36.2557 45.9294 35.3136 47.4076C33.0413 51.1605 29.4588 53.1665 25.5499 54.719C25.07 54.9085 24.2158 54.9109 24.3982 55.4868C24.6069 56.1419 25.9939 55.6812 25.9939 55.6812C26.0264 55.6575 26.061 55.6367 26.097 55.6188C29.3412 54.1791 32.4798 52.5786 34.8265 49.8263C36.3718 48.0123 37.5476 45.9175 37.5908 43.4868C37.6844 38.1574 37.6196 32.8256 37.6196 27.4939L37.6748 11.501Z" fill="#F6F6F6"/>
<path d="M28.669 4.31914C28.669 3.91842 28.4027 3.23216 29.0217 3.22256C29.4752 3.22256 29.4728 3.88003 29.4728 4.33594C29.4728 8.89505 29.492 13.4374 29.492 17.9869C29.492 25.1207 29.4273 32.2545 29.492 39.3859C29.516 41.8646 26.9149 44.8833 25.1249 45.9223C24.9113 46.047 24.5274 46.1094 24.3522 45.8167C24.1435 45.4639 24.3978 45.1832 24.6642 44.9816C25.372 44.4441 26.1303 43.993 26.7782 43.35C28.0067 42.131 28.5274 40.6793 28.5274 38.9972V21.7805L28.669 4.31914Z" fill="#F6F6F6"/>
<path d="M20.3767 20.8615C20.3767 25.4095 20.3767 29.9574 20.3767 34.5053C20.3767 36.5545 20.3503 38.6037 20.3767 40.6529C20.3767 40.948 20.1367 41.4687 20.787 41.4447C21.3533 41.4255 21.2453 40.984 21.2669 40.6313C21.2669 40.4273 21.2669 40.221 21.2669 40.017C21.2797 27.725 21.2909 15.4322 21.3005 3.13859C21.3005 2.31795 21.3005 1.49971 21.3005 0.679068C21.2861 0.333535 21.2453 0 20.7846 0C20.3239 0 20.3047 0.36233 20.3047 0.703063C20.3047 0.988608 20.3047 1.27655 20.3047 1.5621L20.3767 20.8615Z" fill="#F6F6F6"/>
<path d="M24.3716 1.12776C24.3716 0.801426 24.0261 0.203943 24.7196 0.16795C25.4634 0.131957 25.2427 0.760634 25.2451 1.16136C25.2451 14.2484 25.2451 27.3347 25.2451 40.4201C25.2451 40.8136 25.485 41.4783 24.7652 41.4567C24.0453 41.4351 24.3332 40.7681 24.3332 40.3841C24.314 33.8254 24.3092 27.2627 24.3188 20.696L24.3716 1.12776Z" fill="#F6F6F6"/>
<path d="M20.7389 59.5084C20.7918 59.5681 20.8272 59.6411 20.8413 59.7195C20.8555 59.798 20.8477 59.8788 20.819 59.9531C20.7902 60.0275 20.7416 60.0924 20.6784 60.141C20.6152 60.1895 20.5398 60.2197 20.4606 60.2283C19.6376 60.2979 18.9273 59.9211 18.217 59.6836C13.5019 58.1047 9.36035 55.6452 6.38493 51.5516C4.65247 49.1664 3.85342 46.4862 3.87742 43.4915C3.947 34.2749 3.91821 25.0583 3.92061 15.8417C3.92061 15.2778 3.88222 14.7139 3.83183 14.162C3.79583 13.7421 3.87502 13.3006 4.34293 13.2886C4.81084 13.2766 4.84443 13.7277 4.84683 14.1069C4.84683 16.0745 4.87802 18.0421 4.87562 20.0097C4.87562 27.7986 4.9764 35.5923 4.78924 43.3788C4.66926 48.2738 7.0592 51.6596 10.5985 54.491C13.4287 56.7228 16.7001 58.329 20.1966 59.2037C20.4022 59.2529 20.59 59.3584 20.7389 59.5084Z" fill="#F6F6F6"/>
<path d="M40.8473 29.2167V14.5796C40.8473 14.414 40.8329 14.2508 40.8473 14.0997C40.8809 13.7445 40.8473 13.2526 41.3488 13.2886C41.7135 13.315 41.7543 13.7493 41.7591 14.0805C41.7735 14.8987 41.7759 15.7193 41.7735 16.54C41.7735 25.3511 41.7279 34.1622 41.7543 42.9732C41.7687 47.1628 40.2018 50.7261 37.3799 53.6704C35.3307 55.806 32.7584 57.3153 30.0254 58.503C28.5856 59.1269 25.5766 59.9715 25.5766 59.9715C25.5766 59.9715 24.7248 60.2115 24.6168 59.7892C24.4632 59.2685 25.0271 59.3525 25.3367 59.2253C27.5754 58.3231 29.9126 57.5984 32.0098 56.437C35.238 54.657 37.8746 51.9711 39.5947 48.7105C40.7321 46.5917 40.8545 44.317 40.8449 41.9918C40.8257 37.7303 40.8449 33.4663 40.8449 29.2047L40.8473 29.2167Z" fill="#F6F6F6"/>
<path d="M0.928269 31.0092C0.928269 35.6811 0.793896 40.3673 0.973861 45.0248C1.10104 48.3146 2.41358 51.242 4.51077 53.8599C8.06448 58.2943 12.8084 60.7082 18.1017 62.2895C18.8672 62.5294 19.6782 62.5438 20.4269 62.899C20.7604 63.0597 21.1779 63.0117 21.0939 63.542C20.986 64.2139 20.4269 63.9716 20.1197 63.89C18.7568 63.5372 17.4083 63.1221 16.0669 62.6902C10.9823 61.0849 6.66075 58.3087 3.45738 54.0159C1.41537 51.2804 -0.0627379 48.1226 0.0020495 44.7153C0.172416 36.233 -0.0291444 27.765 0.119627 19.2922C0.131624 18.5124 0.119627 17.7349 0.0908322 16.9551C0.0908322 16.5688 0.0908322 16.0673 0.510751 16.0577C1.04585 16.0433 0.990657 16.5784 0.990657 16.9887C0.990657 20.7208 0.985058 24.4512 0.973861 28.1801V31.0092H0.928269Z" fill="#F6F6F6"/>
<path d="M7.98265 11.0738C7.98265 10.7019 7.92506 10.1476 8.34498 10.1668C8.87288 10.1884 8.82488 10.7691 8.84168 11.2154C9.01205 20.3984 9.08163 29.5815 8.84168 38.7645C8.79609 40.6457 8.64492 42.5581 8.91367 44.4034C9.31679 47.1436 11.1284 49.1233 13.1632 50.8821C15.3084 52.7274 17.8039 53.9631 20.4242 54.9613C20.8226 55.1125 21.2809 55.2013 21.0577 55.7604C20.8345 56.3195 20.4098 56.0459 20.0331 55.9043C15.1285 54.0471 10.8381 51.4196 8.47935 46.4694C8.06746 45.5942 7.8544 44.6387 7.85547 43.6715C7.85547 38.2614 7.85547 32.8504 7.85547 27.4387L7.98265 11.0738Z" fill="#F6F6F6"/>
<path d="M45.5122 20.2089C45.5122 19.1003 45.5122 17.9941 45.4882 16.8879C45.4882 16.5328 45.337 16.2281 44.9315 16.2041C44.406 16.1681 44.4972 16.5856 44.4948 16.8903C44.4804 17.9893 44.6387 19.0883 44.6435 20.1777C44.6883 27.8866 44.6883 35.5971 44.6435 43.3092C44.6003 49.1569 41.8721 53.6824 37.4449 57.2889C35.7811 58.6178 33.9303 59.694 31.9524 60.4827C29.6919 61.4563 27.3668 62.2725 24.9937 62.9254C24.701 63.0022 24.2379 62.8966 24.3291 63.4053C24.4203 63.914 25.1449 63.6788 25.1449 63.6788C25.1449 63.6788 27.1005 63.2445 28.0531 62.959C32.6962 61.5816 36.9314 59.5108 40.3412 55.9259C43.5367 52.6504 45.3606 48.2781 45.4402 43.7027C45.5649 39.4004 45.4666 35.0908 45.4666 30.786L45.5122 20.2089Z" fill="#F6F6F6"/>
<path d="M12 25.1543C12 19.373 12 13.5925 12 7.81286C12 7.44813 11.7816 6.85305 12.4487 6.90104C13.0054 6.93223 12.9286 7.47213 12.9286 7.86085C12.9454 10.0732 12.9646 12.288 12.9646 14.5004C12.9742 23.8889 12.9742 33.2767 12.9646 42.6637C12.9828 43.479 13.2602 44.2673 13.7565 44.9144C15.3641 47.23 17.4925 48.9361 19.9952 50.2054C20.4272 50.4262 21.2598 50.6133 20.9911 51.1916C20.6791 51.8587 20.0024 51.3284 19.5273 51.1028C16.6065 49.7233 14.1781 47.4825 12.5687 44.6817C12.194 44.0555 11.999 43.3382 12.0048 42.6085C12.0288 36.7872 12.0048 30.966 12.0048 25.1447L12 25.1543Z" fill="#F6F6F6"/>
<path d="M33.6794 25.0343C33.6794 30.3661 33.641 35.6979 33.6962 41.0272C33.7226 43.7123 32.4293 45.7903 30.7664 47.6427C29.6386 48.8977 28.1533 49.8023 26.644 50.5918C26.429 50.6916 26.2087 50.7797 25.9841 50.8557C25.9841 50.8557 25.0963 51.2924 24.9091 50.7381C24.7604 50.2846 25.3291 50.2582 25.629 50.1095C28.0855 48.9386 30.1706 47.1117 31.6542 44.8305C32.3929 43.6558 32.7754 42.2923 32.7556 40.9049C32.7412 30.0382 32.7484 19.1715 32.7772 8.30479C32.7772 7.82489 32.4701 6.98505 33.1419 6.95385C34.001 6.91306 33.6722 7.80809 33.6746 8.30959C33.6986 13.8861 33.689 19.4626 33.689 25.0391L33.6794 25.0343Z" fill="#F6F6F6"/>
<path d="M16.1529 22.3013C16.1529 16.272 16.1529 10.2412 16.1529 4.20879C16.1529 3.84646 15.9129 3.21538 16.4888 3.20098C17.2087 3.17939 16.8895 3.87285 16.9039 4.25198C17.2998 15.8129 17.0383 27.3787 17.0383 38.942C17.0383 41.6055 18.2165 43.3212 20.2057 44.7441C20.4898 44.9018 20.7575 45.0875 21.0047 45.2984C21.1029 45.4072 21.1583 45.5479 21.1605 45.6945C21.1627 45.841 21.1116 45.9833 21.0167 46.095C20.8368 46.311 20.5656 46.239 20.364 46.0734C18.0821 44.2042 15.9897 42.359 16.1073 38.9132C16.292 33.3943 16.1553 27.8394 16.1553 22.3013H16.1529Z" fill="#F6F6F6"/>
<path d="M37.6748 11.501C37.6748 11.213 37.6748 10.9251 37.6604 10.6395C37.646 10.354 37.6028 10.0325 37.1997 10.0588C36.8781 10.0804 36.8446 10.3468 36.8326 10.5987C36.8326 10.8027 36.8326 11.0091 36.8326 11.213C36.8166 21.6302 36.8014 32.0474 36.787 42.4646C36.766 44.2173 36.2557 45.9294 35.3136 47.4076C33.0413 51.1605 29.4588 53.1665 25.5499 54.719C25.07 54.9085 24.2158 54.9109 24.3982 55.4868C24.6069 56.1419 25.9939 55.6812 25.9939 55.6812C26.0264 55.6575 26.061 55.6367 26.097 55.6188C29.3412 54.1791 32.4798 52.5786 34.8265 49.8263C36.3718 48.0123 37.5476 45.9175 37.5908 43.4868C37.6844 38.1574 37.6196 32.8256 37.6196 27.4939L37.6748 11.501Z" fill="#F6F6F6"/>
<path d="M28.669 4.31914C28.669 3.91842 28.4027 3.23216 29.0217 3.22256C29.4752 3.22256 29.4728 3.88003 29.4728 4.33594C29.4728 8.89505 29.492 13.4374 29.492 17.9869C29.492 25.1207 29.4273 32.2545 29.492 39.3859C29.516 41.8646 26.9149 44.8833 25.1249 45.9223C24.9113 46.047 24.5274 46.1094 24.3522 45.8167C24.1435 45.4639 24.3978 45.1832 24.6642 44.9816C25.372 44.4441 26.1303 43.993 26.7782 43.35C28.0067 42.131 28.5274 40.6793 28.5274 38.9972V21.7805L28.669 4.31914Z" fill="#F6F6F6"/>
<path d="M24.3716 1.12776C24.3716 0.801426 24.0261 0.203943 24.7196 0.16795C25.4634 0.131957 25.2427 0.760634 25.2451 1.16136C25.2451 14.2484 25.2451 27.3347 25.2451 40.4201C25.2451 40.8136 25.485 41.4783 24.7652 41.4567C24.0453 41.4351 24.3332 40.7681 24.3332 40.3841C24.314 33.8254 24.3092 27.2627 24.3188 20.696L24.3716 1.12776Z" fill="#F6F6F6"/>
</svg>
