<svg width="158" height="64" viewBox="0 0 158 64" fill="none" xmlns="http://www.w3.org/2000/svg">
<path d="M70.7738 12.0938V16.4825H66.6083V42.9518H62.1499V16.4825H57.9915V12.0938H70.7738Z" fill="#0E3272"/>
<path d="M87.1051 32.0003L88.5449 42.9422H84.0433L83.1795 36.401H78.6348L77.7469 42.9518H73.2742L74.7139 32.0555L77.8645 12.0938H83.9641L87.1051 32.0003ZM82.6084 32.0003L80.9095 19.17L79.2131 32.0003H82.6084Z" fill="#0E3272"/>
<path d="M102.829 33.2264L108.003 12.0938H112.451V42.9518H108.192V25.6319L104.382 42.9518H101.368L97.4519 25.6415V42.9518H93.1448V12.0938H97.5935L102.829 33.2264Z" fill="#F6F6F6"/>
<path d="M128.156 33.2264L133.33 12.0938H137.781V42.9518H133.519V25.6319L129.714 42.9518H126.697L122.784 25.6415V42.9518H118.465V12.0938H122.916L128.156 33.2264Z" fill="#F6F6F6"/>
<path d="M156.212 32.0003L157.652 42.9422H153.155L152.291 36.401H147.746L146.866 42.9518H142.386L143.825 32.0555L146.976 12.0938H153.076L156.212 32.0003ZM151.715 32.0003L150.016 19.17L148.32 32.0003H151.715Z" fill="#F6F6F6"/>
<path d="M102.829 33.2264L108.003 12.0938H112.451V42.9518H108.192V25.6319L104.382 42.9518H101.368L97.4519 25.6415V42.9518H93.1448V12.0938H97.5935L102.829 33.2264Z" fill="#0E3272"/>
<path d="M128.156 33.2264L133.33 12.0938H137.781V42.9518H133.519V25.6319L129.714 42.9518H126.697L122.784 25.6415V42.9518H118.465V12.0938H122.916L128.156 33.2264Z" fill="#0E3272"/>
<path d="M156.212 32.0003L157.652 42.9422H153.155L152.291 36.401H147.746L146.866 42.9518H142.386L143.825 32.0555L146.976 12.0938H153.076L156.212 32.0003ZM151.715 32.0003L150.016 19.17L148.32 32.0003H151.715Z" fill="#0E3272"/>
<path d="M64.4608 56.5619C63.7721 56.5697 63.0881 56.4468 62.4452 56.1996C61.8498 55.9709 61.3063 55.6249 60.8471 55.1822C60.3961 54.7442 60.0385 54.2194 59.7961 53.6393C59.2971 52.3949 59.2971 51.0061 59.7961 49.7617C60.0398 49.184 60.4001 48.6629 60.8543 48.2308C61.317 47.789 61.8626 47.4432 62.4596 47.2134C63.1017 46.9664 63.7849 46.8434 64.4728 46.851C65.155 46.8425 65.8331 46.9579 66.474 47.1918C67.0659 47.4101 67.5972 47.7663 68.0241 48.2308L67.3954 48.8714C67.0236 48.4898 66.571 48.1963 66.0709 48.0124C65.5707 47.8365 65.0438 47.7489 64.5136 47.7533C63.9561 47.7464 63.4023 47.8458 62.8819 48.046C62.4006 48.2325 61.9616 48.5136 61.5907 48.8725C61.2198 49.2315 60.9245 49.6611 60.7223 50.136C60.3127 51.1446 60.3127 52.2732 60.7223 53.2818C60.9224 53.7588 61.2169 54.1905 61.588 54.5509C61.9591 54.9113 62.3992 55.1929 62.8819 55.379C63.3988 55.5766 63.9483 55.6751 64.5016 55.6693C65.0279 55.6739 65.5514 55.5929 66.0517 55.4294C66.5551 55.2534 67.0138 54.9692 67.3954 54.5967L67.9689 55.3598C67.5021 55.7663 66.9588 56.0755 66.3708 56.2692C65.7542 56.4694 65.1091 56.5682 64.4608 56.5619ZM66.9995 55.223V51.7005H67.9593V55.3454L66.9995 55.223Z" fill="#F6F6F6"/>
<path d="M82.2654 56.4803V46.9206H85.8431C86.5593 46.9025 87.2713 47.0349 87.9331 47.3093C88.483 47.5411 88.9516 47.9311 89.2792 48.4299C89.6085 48.9598 89.7753 49.5746 89.7591 50.1983C89.7741 50.8129 89.6071 51.4181 89.2792 51.938C88.9522 52.4373 88.4834 52.8276 87.9331 53.0586C87.2713 53.333 86.5593 53.4654 85.8431 53.4473H82.8269L83.278 52.9842V56.4803H82.2654ZM83.278 53.0658L82.8269 52.5859H85.8167C86.7765 52.5859 87.5028 52.3763 87.9955 51.9572C88.231 51.7268 88.4181 51.4517 88.5458 51.148C88.6736 50.8443 88.7394 50.5182 88.7394 50.1888C88.7394 49.8593 88.6736 49.5332 88.5458 49.2295C88.4181 48.9258 88.231 48.6507 87.9955 48.4203C87.4988 48.0028 86.7717 47.7916 85.8167 47.7916H82.8269L83.278 47.3117V53.0658ZM88.7969 56.4803L86.3374 53.0106H87.4292L89.9031 56.4803H88.7969Z" fill="#F6F6F6"/>
<path d="M107.76 56.5618C107.076 56.5687 106.397 56.4458 105.759 56.1994C105.163 55.9705 104.62 55.6218 104.163 55.1748C103.714 54.7352 103.356 54.2108 103.11 53.6319C102.611 52.3925 102.611 51.0081 103.11 49.7687C103.356 49.1898 103.714 48.6654 104.163 48.2258C104.618 47.7794 105.16 47.4307 105.754 47.2012C107.044 46.7181 108.465 46.7181 109.754 47.2012C110.346 47.4353 110.886 47.7853 111.34 48.2306C111.792 48.6679 112.15 49.1929 112.391 49.7735C112.894 51.0172 112.894 52.4074 112.391 53.6511C112.149 54.2299 111.792 54.7533 111.34 55.1892C110.883 55.6308 110.342 55.9767 109.75 56.2066C109.115 56.4503 108.44 56.5708 107.76 56.5618ZM107.76 55.6595C108.304 55.6646 108.845 55.5652 109.351 55.3668C109.826 55.1783 110.258 54.895 110.621 54.5342C110.98 54.1744 111.266 53.7471 111.46 53.2768C111.86 52.2639 111.86 51.1368 111.46 50.1238C111.267 49.6532 110.981 49.2258 110.621 48.8665C110.258 48.5056 109.826 48.2223 109.351 48.0338C108.845 47.8342 108.305 47.7348 107.76 47.7411C107.214 47.7353 106.671 47.8347 106.162 48.0338C105.684 48.221 105.25 48.5044 104.886 48.8665C104.139 49.6208 103.721 50.6391 103.721 51.7003C103.721 52.7615 104.139 53.7799 104.886 54.5342C105.25 54.8962 105.684 55.1796 106.162 55.3668C106.671 55.5679 107.213 55.6705 107.76 55.6691V55.6595Z" fill="#F6F6F6"/>
<path d="M130.333 56.5617C129.111 56.5617 128.151 56.2114 127.453 55.5107C126.756 54.8101 126.406 53.7703 126.402 52.3913V46.9204H127.417V52.3554C127.417 53.4847 127.672 54.3174 128.183 54.8533C128.693 55.3892 129.413 55.6579 130.342 55.6595C131.28 55.6595 132.004 55.3908 132.514 54.8533C133.024 54.3158 133.279 53.4831 133.277 52.3554V46.9204H134.261V52.3961C134.261 53.7703 133.913 54.8101 133.217 55.5155C132.521 56.221 131.56 56.5697 130.333 56.5617Z" fill="#F6F6F6"/>
<path d="M148.74 56.4803V46.9206H152.317C153.033 46.9025 153.745 47.0349 154.407 47.3093C154.957 47.5411 155.424 47.9312 155.751 48.4299C156.08 48.9598 156.247 49.5746 156.231 50.1983C156.246 50.8129 156.079 51.4181 155.751 51.938C155.424 52.4382 154.957 52.8306 154.407 53.0658C153.747 53.345 153.034 53.48 152.317 53.4617H149.299L149.75 52.9818V56.4779L148.74 56.4803ZM149.75 53.0658L149.299 52.5739H152.291C153.251 52.5739 153.971 52.3675 154.467 51.9524C154.718 51.7366 154.915 51.4663 155.044 51.1622C155.174 50.8581 155.232 50.5283 155.214 50.1983C155.232 49.8651 155.175 49.532 155.045 49.2243C154.916 48.9166 154.718 48.6425 154.467 48.4227C153.973 48.0052 153.246 47.794 152.291 47.794H149.299L149.75 47.3141V53.0658Z" fill="#F6F6F6"/>
<path d="M64.4608 56.5619C63.7721 56.5697 63.0881 56.4468 62.4452 56.1996C61.8498 55.9709 61.3063 55.6249 60.8471 55.1822C60.3961 54.7442 60.0385 54.2194 59.7961 53.6393C59.2971 52.3949 59.2971 51.0061 59.7961 49.7617C60.0398 49.184 60.4001 48.6629 60.8543 48.2308C61.317 47.789 61.8626 47.4432 62.4596 47.2134C63.1017 46.9664 63.7849 46.8434 64.4728 46.851C65.155 46.8425 65.8331 46.9579 66.474 47.1918C67.0659 47.4101 67.5972 47.7663 68.0241 48.2308L67.3954 48.8714C67.0236 48.4898 66.571 48.1963 66.0709 48.0124C65.5707 47.8365 65.0438 47.7489 64.5136 47.7533C63.9561 47.7464 63.4023 47.8458 62.8819 48.046C62.4006 48.2325 61.9616 48.5136 61.5907 48.8725C61.2198 49.2315 60.9245 49.6611 60.7223 50.136C60.3127 51.1446 60.3127 52.2732 60.7223 53.2818C60.9224 53.7588 61.2169 54.1905 61.588 54.5509C61.9591 54.9113 62.3992 55.1929 62.8819 55.379C63.3988 55.5766 63.9483 55.6751 64.5016 55.6693C65.0279 55.6739 65.5514 55.5929 66.0517 55.4294C66.5551 55.2534 67.0138 54.9692 67.3954 54.5967L67.9689 55.3598C67.5021 55.7663 66.9588 56.0755 66.3708 56.2692C65.7542 56.4694 65.1091 56.5682 64.4608 56.5619ZM66.9995 55.223V51.7005H67.9593V55.3454L66.9995 55.223Z" fill="#0E3272"/>
<path d="M82.2654 56.4803V46.9206H85.8431C86.5593 46.9025 87.2713 47.0349 87.9331 47.3093C88.483 47.5411 88.9516 47.9311 89.2792 48.4299C89.6085 48.9598 89.7753 49.5746 89.7591 50.1983C89.7741 50.8129 89.6071 51.4181 89.2792 51.938C88.9522 52.4373 88.4834 52.8276 87.9331 53.0586C87.2713 53.333 86.5593 53.4654 85.8431 53.4473H82.8269L83.278 52.9842V56.4803H82.2654ZM83.278 53.0658L82.8269 52.5859H85.8167C86.7765 52.5859 87.5028 52.3763 87.9955 51.9572C88.231 51.7268 88.4181 51.4517 88.5458 51.148C88.6736 50.8443 88.7394 50.5182 88.7394 50.1888C88.7394 49.8593 88.6736 49.5332 88.5458 49.2295C88.4181 48.9258 88.231 48.6507 87.9955 48.4203C87.4988 48.0028 86.7717 47.7916 85.8167 47.7916H82.8269L83.278 47.3117V53.0658ZM88.7969 56.4803L86.3374 53.0106H87.4292L89.9031 56.4803H88.7969Z" fill="#0E3272"/>
<path d="M107.76 56.5618C107.076 56.5687 106.397 56.4458 105.759 56.1994C105.163 55.9705 104.62 55.6218 104.163 55.1748C103.714 54.7352 103.356 54.2108 103.11 53.6319C102.611 52.3925 102.611 51.0081 103.11 49.7687C103.356 49.1898 103.714 48.6654 104.163 48.2258C104.618 47.7794 105.16 47.4307 105.754 47.2012C107.044 46.7181 108.465 46.7181 109.754 47.2012C110.346 47.4353 110.886 47.7853 111.34 48.2306C111.792 48.6679 112.15 49.1929 112.391 49.7735C112.894 51.0172 112.894 52.4074 112.391 53.6511C112.149 54.2299 111.792 54.7533 111.34 55.1892C110.883 55.6308 110.342 55.9767 109.75 56.2066C109.115 56.4503 108.44 56.5708 107.76 56.5618ZM107.76 55.6595C108.304 55.6646 108.845 55.5652 109.351 55.3668C109.826 55.1783 110.258 54.895 110.621 54.5342C110.98 54.1744 111.266 53.7471 111.46 53.2768C111.86 52.2639 111.86 51.1368 111.46 50.1238C111.267 49.6532 110.981 49.2258 110.621 48.8665C110.258 48.5056 109.826 48.2223 109.351 48.0338C108.845 47.8342 108.305 47.7348 107.76 47.7411C107.214 47.7353 106.671 47.8347 106.162 48.0338C105.684 48.221 105.25 48.5044 104.886 48.8665C104.139 49.6208 103.721 50.6391 103.721 51.7003C103.721 52.7615 104.139 53.7799 104.886 54.5342C105.25 54.8962 105.684 55.1796 106.162 55.3668C106.671 55.5679 107.213 55.6705 107.76 55.6691V55.6595Z" fill="#0E3272"/>
<path d="M130.333 56.5617C129.111 56.5617 128.151 56.2114 127.453 55.5107C126.756 54.8101 126.406 53.7703 126.402 52.3913V46.9204H127.417V52.3554C127.417 53.4847 127.672 54.3174 128.183 54.8533C128.693 55.3892 129.413 55.6579 130.342 55.6595C131.28 55.6595 132.004 55.3908 132.514 54.8533C133.024 54.3158 133.279 53.4831 133.277 52.3554V46.9204H134.261V52.3961C134.261 53.7703 133.913 54.8101 133.217 55.5155C132.521 56.221 131.56 56.5697 130.333 56.5617Z" fill="#0E3272"/>
<path d="M148.74 56.4803V46.9206H152.317C153.033 46.9025 153.745 47.0349 154.407 47.3093C154.957 47.5411 155.424 47.9312 155.751 48.4299C156.08 48.9598 156.247 49.5746 156.231 50.1983C156.246 50.8129 156.079 51.4181 155.751 51.938C155.424 52.4382 154.957 52.8306 154.407 53.0658C153.747 53.345 153.034 53.48 152.317 53.4617H149.299L149.75 52.9818V56.4779L148.74 56.4803ZM149.75 53.0658L149.299 52.5739H152.291C153.251 52.5739 153.971 52.3675 154.467 51.9524C154.718 51.7366 154.915 51.4663 155.044 51.1622C155.174 50.8581 155.232 50.5283 155.214 50.1983C155.232 49.8651 155.175 49.532 155.045 49.2243C154.916 48.9166 154.718 48.6425 154.467 48.4227C153.973 48.0052 153.246 47.794 152.291 47.794H149.299L149.75 47.3141V53.0658Z" fill="#0E3272"/>
<path d="M20.7388 59.5086C20.7917 59.5683 20.8271 59.6413 20.8412 59.7197C20.8553 59.7982 20.8476 59.879 20.8189 59.9533C20.7901 60.0276 20.7415 60.0926 20.6783 60.1412C20.615 60.1897 20.5397 60.2199 20.4605 60.2285C19.6374 60.2981 18.9272 59.9213 18.2169 59.6838C13.5018 58.1049 9.36021 55.6454 6.38479 51.5518C4.65233 49.1666 3.85328 46.4864 3.87728 43.4917C3.94687 34.2751 3.91807 25.0585 3.92047 15.8419C3.92047 15.278 3.88208 14.7141 3.83169 14.1622C3.7957 13.7423 3.87488 13.3008 4.34279 13.2888C4.8107 13.2768 4.84429 13.7279 4.84669 14.107C4.84669 16.0747 4.87788 18.0423 4.87549 20.0099C4.87549 27.7988 4.97627 35.5925 4.7891 43.379C4.66913 48.274 7.05906 51.6597 10.5984 54.4912C13.4286 56.723 16.6999 58.3292 20.1965 59.2039C20.4021 59.2531 20.5899 59.3586 20.7388 59.5086Z" fill="#F6F6F6"/>
<path d="M40.8469 29.2166V14.5794C40.8469 14.4139 40.8325 14.2507 40.8469 14.0995C40.8805 13.7444 40.8469 13.2525 41.3484 13.2885C41.7132 13.3149 41.754 13.7492 41.7588 14.0803C41.7732 14.8986 41.7756 15.7192 41.7732 16.5399C41.7732 25.3509 41.7276 34.162 41.754 42.9731C41.7684 47.1627 40.2015 50.726 37.3796 53.6702C35.3304 55.8058 32.7581 57.3151 30.025 58.5029C28.5853 59.1268 25.5763 59.9714 25.5763 59.9714C25.5763 59.9714 24.7245 60.2114 24.6165 59.789C24.4629 59.2683 25.0268 59.3523 25.3364 59.2252C27.5751 58.3229 29.9123 57.5983 32.0095 56.4369C35.2376 54.6568 37.8743 51.9709 39.5944 48.7104C40.7318 46.5916 40.8541 44.3169 40.8445 41.9917C40.8253 37.7301 40.8445 33.4662 40.8445 29.2046L40.8469 29.2166Z" fill="#F6F6F6"/>
<path d="M0.928269 31.0094C0.928269 35.6813 0.793896 40.3676 0.973861 45.0251C1.10104 48.3148 2.41358 51.2423 4.51077 53.8602C8.06448 58.2945 12.8084 60.7084 18.1017 62.2897C18.8672 62.5297 19.6782 62.5441 20.4269 62.8992C20.7604 63.06 21.1779 63.012 21.0939 63.5423C20.986 64.2141 20.4269 63.9718 20.1197 63.8902C18.7568 63.5375 17.4083 63.1224 16.0669 62.6904C10.9823 61.0852 6.66075 58.3089 3.45738 54.0161C1.41537 51.2807 -0.0627379 48.1229 0.0020495 44.7155C0.172416 36.2332 -0.0291444 27.7652 0.119627 19.2925C0.131624 18.5126 0.119627 17.7352 0.0908322 16.9553C0.0908322 16.569 0.0908322 16.0675 0.510751 16.0579C1.04585 16.0435 0.990657 16.5786 0.990657 16.9889C0.990657 20.721 0.985058 24.4515 0.973861 28.1803V31.0094H0.928269Z" fill="#F6F6F6"/>
<path d="M7.98291 11.074C7.98291 10.7021 7.92532 10.1478 8.34524 10.167C8.87313 10.1886 8.82514 10.7693 8.84194 11.2156C9.01231 20.3986 9.08189 29.5816 8.84194 38.7646C8.79635 40.6459 8.64518 42.5583 8.91393 44.4035C9.31705 47.1438 11.1287 49.1234 13.1635 50.8823C15.3087 52.7275 17.8042 53.9633 20.4245 54.9615C20.8228 55.1127 21.2811 55.2014 21.058 55.7605C20.8348 56.3196 20.4101 56.0461 20.0334 55.9045C15.1287 54.0473 10.8384 51.4198 8.47961 46.4695C8.06772 45.5944 7.85466 44.6389 7.85573 43.6717C7.85573 38.2615 7.85573 32.8506 7.85573 27.4388L7.98291 11.074Z" fill="#F6F6F6"/>
<path d="M45.5117 20.2087C45.5117 19.1001 45.5117 17.9939 45.4877 16.8877C45.4877 16.5326 45.3365 16.2278 44.931 16.2038C44.4055 16.1678 44.4967 16.5854 44.4943 16.8901C44.4799 17.9891 44.6383 19.0881 44.6431 20.1775C44.6879 27.8864 44.6879 35.5969 44.6431 43.309C44.5999 49.1566 41.8716 53.6822 37.4445 57.2887C35.7806 58.6175 33.9299 59.6937 31.9519 60.4824C29.6915 61.4561 27.3664 62.2723 24.9933 62.9252C24.7005 63.0019 24.2374 62.8964 24.3286 63.4051C24.4198 63.9138 25.1445 63.6786 25.1445 63.6786C25.1445 63.6786 27.1001 63.2443 28.0527 62.9588C32.6958 61.5814 36.931 59.5106 40.3407 55.9257C43.5362 52.6502 45.3602 48.2779 45.4397 43.7025C45.5645 39.4001 45.4661 35.0906 45.4661 30.7858L45.5117 20.2087Z" fill="#F6F6F6"/>
<path d="M11.9998 25.1544C11.9998 19.3731 11.9998 13.5927 11.9998 7.81299C11.9998 7.44826 11.7814 6.85318 12.4485 6.90117C13.0052 6.93236 12.9284 7.47226 12.9284 7.86098C12.9452 10.0734 12.9644 12.2881 12.9644 14.5005C12.974 23.8891 12.974 33.2768 12.9644 42.6638C12.9826 43.4791 13.26 44.2675 13.7563 44.9146C15.3639 47.2301 17.4923 48.9362 19.995 50.2055C20.427 50.4263 21.2596 50.6135 20.9909 51.1918C20.6789 51.8588 20.0022 51.3285 19.5271 51.103C16.6063 49.7235 14.1779 47.4826 12.5685 44.6818C12.1938 44.0556 11.9988 43.3383 12.0046 42.6086C12.0286 36.7874 12.0046 30.9661 12.0046 25.1448L11.9998 25.1544Z" fill="#F6F6F6"/>
<path d="M33.6796 25.0345C33.6796 30.3662 33.6412 35.698 33.6964 41.0274C33.7227 43.7124 32.4294 45.7904 30.7665 47.6429C29.6387 48.8978 28.1534 49.8025 26.6441 50.5919C26.4291 50.6917 26.2088 50.7798 25.9843 50.8559C25.9843 50.8559 25.0964 51.2926 24.9093 50.7383C24.7605 50.2848 25.3292 50.2584 25.6291 50.1096C28.0856 48.9387 30.1707 47.1118 31.6544 44.8306C32.393 43.656 32.7756 42.2924 32.7557 40.905C32.7413 30.0383 32.7485 19.1716 32.7773 8.30492C32.7773 7.82502 32.4702 6.98518 33.1421 6.95398C34.0011 6.91319 33.6724 7.80822 33.6748 8.30972C33.6988 13.8862 33.6892 19.4628 33.6892 25.0393L33.6796 25.0345Z" fill="#F6F6F6"/>
<path d="M16.1533 22.3015C16.1533 16.2722 16.1533 10.2414 16.1533 4.20898C16.1533 3.84665 15.9134 3.21557 16.4893 3.20118C17.2091 3.17958 16.89 3.87305 16.9044 4.25217C17.3003 15.8131 17.0387 27.3789 17.0387 38.9422C17.0387 41.6057 18.2169 43.3214 20.2061 44.7443C20.4903 44.902 20.758 45.0877 21.0052 45.2986C21.1034 45.4074 21.1587 45.5481 21.1609 45.6947C21.1631 45.8412 21.1121 45.9835 21.0172 46.0952C20.8372 46.3112 20.5661 46.2392 20.3645 46.0736C18.0825 44.2044 15.9902 42.3592 16.1077 38.9134C16.2925 33.3945 16.1557 27.8396 16.1557 22.3015H16.1533Z" fill="#F6F6F6"/>
<path d="M37.6748 11.5008C37.6748 11.2128 37.6748 10.9249 37.6604 10.6393C37.646 10.3538 37.6028 10.0323 37.1997 10.0587C36.8781 10.0802 36.8446 10.3466 36.8326 10.5985C36.8326 10.8025 36.8326 11.0089 36.8326 11.2128C36.8166 21.63 36.8014 32.0472 36.787 42.4644C36.766 44.2171 36.2557 45.9292 35.3136 47.4074C33.0413 51.1603 29.4588 53.1663 25.5499 54.7188C25.07 54.9083 24.2158 54.9107 24.3982 55.4866C24.6069 56.1417 25.9939 55.681 25.9939 55.681C26.0264 55.6573 26.061 55.6365 26.097 55.6186C29.3412 54.1789 32.4798 52.5784 34.8265 49.8261C36.3718 48.0121 37.5476 45.9173 37.5908 43.4866C37.6844 38.1572 37.6196 32.8254 37.6196 27.4937L37.6748 11.5008Z" fill="#F6F6F6"/>
<path d="M28.6693 4.31924C28.6693 3.91852 28.4029 3.23225 29.022 3.22266C29.4755 3.22266 29.4731 3.88013 29.4731 4.33604C29.4731 8.89515 29.4923 13.4375 29.4923 17.987C29.4923 25.1208 29.4275 32.2546 29.4923 39.386C29.5163 41.8647 26.9152 44.8834 25.1251 45.9224C24.9116 46.0471 24.5277 46.1095 24.3525 45.8168C24.1437 45.464 24.3981 45.1833 24.6644 44.9817C25.3723 44.4442 26.1306 43.9931 26.7784 43.3501C28.007 42.1311 28.5277 40.6794 28.5277 38.9973V21.7806L28.6693 4.31924Z" fill="#F6F6F6"/>
<path d="M20.3766 20.8615C20.3766 25.4095 20.3766 29.9574 20.3766 34.5053C20.3766 36.5545 20.3502 38.6037 20.3766 40.6529C20.3766 40.948 20.1366 41.4687 20.7869 41.4447C21.3532 41.4255 21.2452 40.984 21.2668 40.6313C21.2668 40.4273 21.2668 40.221 21.2668 40.017C21.2796 27.725 21.2908 15.4322 21.3004 3.13859C21.3004 2.31795 21.3004 1.49971 21.3004 0.679068C21.286 0.333535 21.2452 0 20.7845 0C20.3238 0 20.3046 0.36233 20.3046 0.703063C20.3046 0.988608 20.3046 1.27655 20.3046 1.5621L20.3766 20.8615Z" fill="#7CB342"/>
<path d="M24.3717 1.1278C24.3717 0.801461 24.0262 0.203977 24.7196 0.167984C25.4635 0.131991 25.2427 0.760669 25.2451 1.16139C25.2451 14.2484 25.2451 27.3347 25.2451 40.4202C25.2451 40.8137 25.4851 41.4784 24.7652 41.4568C24.0454 41.4352 24.3333 40.7681 24.3333 40.3842C24.3141 33.8254 24.3093 27.2627 24.3189 20.696L24.3717 1.1278Z" fill="#F6F6F6"/>
<path d="M20.7388 59.5086C20.7917 59.5683 20.8271 59.6413 20.8412 59.7197C20.8553 59.7982 20.8476 59.879 20.8189 59.9533C20.7901 60.0276 20.7415 60.0926 20.6783 60.1412C20.615 60.1897 20.5397 60.2199 20.4605 60.2285C19.6374 60.2981 18.9272 59.9213 18.2169 59.6838C13.5018 58.1049 9.36021 55.6454 6.38479 51.5518C4.65233 49.1666 3.85328 46.4864 3.87728 43.4917C3.94687 34.2751 3.91807 25.0585 3.92047 15.8419C3.92047 15.278 3.88208 14.7141 3.83169 14.1622C3.7957 13.7423 3.87488 13.3008 4.34279 13.2888C4.8107 13.2768 4.84429 13.7279 4.84669 14.107C4.84669 16.0747 4.87788 18.0423 4.87549 20.0099C4.87549 27.7988 4.97627 35.5925 4.7891 43.379C4.66913 48.274 7.05906 51.6597 10.5984 54.4912C13.4286 56.723 16.6999 58.3292 20.1965 59.2039C20.4021 59.2531 20.5899 59.3586 20.7388 59.5086Z" fill="#7CB342"/>
<path d="M40.8469 29.2166V14.5794C40.8469 14.4139 40.8325 14.2507 40.8469 14.0995C40.8805 13.7444 40.8469 13.2525 41.3484 13.2885C41.7132 13.3149 41.754 13.7492 41.7588 14.0803C41.7732 14.8986 41.7756 15.7192 41.7732 16.5399C41.7732 25.3509 41.7276 34.162 41.754 42.9731C41.7684 47.1627 40.2015 50.726 37.3796 53.6702C35.3304 55.8058 32.7581 57.3151 30.025 58.5029C28.5853 59.1268 25.5763 59.9714 25.5763 59.9714C25.5763 59.9714 24.7245 60.2114 24.6165 59.789C24.4629 59.2683 25.0268 59.3523 25.3364 59.2252C27.5751 58.3229 29.9123 57.5983 32.0095 56.4369C35.2376 54.6568 37.8743 51.9709 39.5944 48.7104C40.7318 46.5916 40.8541 44.3169 40.8445 41.9917C40.8253 37.7301 40.8445 33.4662 40.8445 29.2046L40.8469 29.2166Z" fill="#7CB342"/>
<path d="M0.928269 31.0094C0.928269 35.6813 0.793896 40.3676 0.973861 45.0251C1.10104 48.3148 2.41358 51.2423 4.51077 53.8602C8.06448 58.2945 12.8084 60.7084 18.1017 62.2897C18.8672 62.5297 19.6782 62.5441 20.4269 62.8992C20.7604 63.06 21.1779 63.012 21.0939 63.5423C20.986 64.2141 20.4269 63.9718 20.1197 63.8902C18.7568 63.5375 17.4083 63.1224 16.0669 62.6904C10.9823 61.0852 6.66075 58.3089 3.45738 54.0161C1.41537 51.2807 -0.0627379 48.1229 0.0020495 44.7155C0.172416 36.2332 -0.0291444 27.7652 0.119627 19.2925C0.131624 18.5126 0.119627 17.7352 0.0908322 16.9553C0.0908322 16.569 0.0908322 16.0675 0.510751 16.0579C1.04585 16.0435 0.990657 16.5786 0.990657 16.9889C0.990657 20.721 0.985058 24.4515 0.973861 28.1803V31.0094H0.928269Z" fill="#7CB342"/>
<path d="M7.98291 11.074C7.98291 10.7021 7.92532 10.1478 8.34524 10.167C8.87313 10.1886 8.82514 10.7693 8.84194 11.2156C9.01231 20.3986 9.08189 29.5816 8.84194 38.7646C8.79635 40.6459 8.64518 42.5583 8.91393 44.4035C9.31705 47.1438 11.1287 49.1234 13.1635 50.8823C15.3087 52.7275 17.8042 53.9633 20.4245 54.9615C20.8228 55.1127 21.2811 55.2014 21.058 55.7605C20.8348 56.3196 20.4101 56.0461 20.0334 55.9045C15.1287 54.0473 10.8384 51.4198 8.47961 46.4695C8.06772 45.5944 7.85466 44.6389 7.85573 43.6717C7.85573 38.2615 7.85573 32.8506 7.85573 27.4388L7.98291 11.074Z" fill="#7CB342"/>
<path d="M45.5117 20.2087C45.5117 19.1001 45.5117 17.9939 45.4877 16.8877C45.4877 16.5326 45.3365 16.2278 44.931 16.2038C44.4055 16.1678 44.4967 16.5854 44.4943 16.8901C44.4799 17.9891 44.6383 19.0881 44.6431 20.1775C44.6879 27.8864 44.6879 35.5969 44.6431 43.309C44.5999 49.1566 41.8716 53.6822 37.4445 57.2887C35.7806 58.6175 33.9299 59.6937 31.9519 60.4824C29.6915 61.4561 27.3664 62.2723 24.9933 62.9252C24.7005 63.0019 24.2374 62.8964 24.3286 63.4051C24.4198 63.9138 25.1445 63.6786 25.1445 63.6786C25.1445 63.6786 27.1001 63.2443 28.0527 62.9588C32.6958 61.5814 36.931 59.5106 40.3407 55.9257C43.5362 52.6502 45.3602 48.2779 45.4397 43.7025C45.5645 39.4001 45.4661 35.0906 45.4661 30.7858L45.5117 20.2087Z" fill="#7CB342"/>
<path d="M11.9998 25.1544C11.9998 19.3731 11.9998 13.5927 11.9998 7.81299C11.9998 7.44826 11.7814 6.85318 12.4485 6.90117C13.0052 6.93236 12.9284 7.47226 12.9284 7.86098C12.9452 10.0734 12.9644 12.2881 12.9644 14.5005C12.974 23.8891 12.974 33.2768 12.9644 42.6638C12.9826 43.4791 13.26 44.2675 13.7563 44.9146C15.3639 47.2301 17.4923 48.9362 19.995 50.2055C20.427 50.4263 21.2596 50.6135 20.9909 51.1918C20.6789 51.8588 20.0022 51.3285 19.5271 51.103C16.6063 49.7235 14.1779 47.4826 12.5685 44.6818C12.1938 44.0556 11.9988 43.3383 12.0046 42.6086C12.0286 36.7874 12.0046 30.9661 12.0046 25.1448L11.9998 25.1544Z" fill="#7CB342"/>
<path d="M33.6796 25.0345C33.6796 30.3662 33.6412 35.698 33.6964 41.0274C33.7227 43.7124 32.4294 45.7904 30.7665 47.6429C29.6387 48.8978 28.1534 49.8025 26.6441 50.5919C26.4291 50.6917 26.2088 50.7798 25.9843 50.8559C25.9843 50.8559 25.0964 51.2926 24.9093 50.7383C24.7605 50.2848 25.3292 50.2584 25.6291 50.1096C28.0856 48.9387 30.1707 47.1118 31.6544 44.8306C32.393 43.656 32.7756 42.2924 32.7557 40.905C32.7413 30.0383 32.7485 19.1716 32.7773 8.30492C32.7773 7.82502 32.4702 6.98518 33.1421 6.95398C34.0011 6.91319 33.6724 7.80822 33.6748 8.30972C33.6988 13.8862 33.6892 19.4628 33.6892 25.0393L33.6796 25.0345Z" fill="#7CB342"/>
<path d="M16.1533 22.3015C16.1533 16.2722 16.1533 10.2414 16.1533 4.20898C16.1533 3.84665 15.9134 3.21557 16.4893 3.20118C17.2091 3.17958 16.89 3.87305 16.9044 4.25217C17.3003 15.8131 17.0387 27.3789 17.0387 38.9422C17.0387 41.6057 18.2169 43.3214 20.2061 44.7443C20.4903 44.902 20.758 45.0877 21.0052 45.2986C21.1034 45.4074 21.1587 45.5481 21.1609 45.6947C21.1631 45.8412 21.1121 45.9835 21.0172 46.0952C20.8372 46.3112 20.5661 46.2392 20.3645 46.0736C18.0825 44.2044 15.9902 42.3592 16.1077 38.9134C16.2925 33.3945 16.1557 27.8396 16.1557 22.3015H16.1533Z" fill="#7CB342"/>
<path d="M37.6748 11.5008C37.6748 11.2128 37.6748 10.9249 37.6604 10.6393C37.646 10.3538 37.6028 10.0323 37.1997 10.0587C36.8781 10.0802 36.8446 10.3466 36.8326 10.5985C36.8326 10.8025 36.8326 11.0089 36.8326 11.2128C36.8166 21.63 36.8014 32.0472 36.787 42.4644C36.766 44.2171 36.2557 45.9292 35.3136 47.4074C33.0413 51.1603 29.4588 53.1663 25.5499 54.7188C25.07 54.9083 24.2158 54.9107 24.3982 55.4866C24.6069 56.1417 25.9939 55.681 25.9939 55.681C26.0264 55.6573 26.061 55.6365 26.097 55.6186C29.3412 54.1789 32.4798 52.5784 34.8265 49.8261C36.3718 48.0121 37.5476 45.9173 37.5908 43.4866C37.6844 38.1572 37.6196 32.8254 37.6196 27.4937L37.6748 11.5008Z" fill="#7CB342"/>
<path d="M28.6693 4.31924C28.6693 3.91852 28.4029 3.23225 29.022 3.22266C29.4755 3.22266 29.4731 3.88013 29.4731 4.33604C29.4731 8.89515 29.4923 13.4375 29.4923 17.987C29.4923 25.1208 29.4275 32.2546 29.4923 39.386C29.5163 41.8647 26.9152 44.8834 25.1251 45.9224C24.9116 46.0471 24.5277 46.1095 24.3525 45.8168C24.1437 45.464 24.3981 45.1833 24.6644 44.9817C25.3723 44.4442 26.1306 43.9931 26.7784 43.3501C28.007 42.1311 28.5277 40.6794 28.5277 38.9973V21.7806L28.6693 4.31924Z" fill="#7CB342"/>
<path d="M24.3717 1.1278C24.3717 0.801461 24.0262 0.203977 24.7196 0.167984C25.4635 0.131991 25.2427 0.760669 25.2451 1.16139C25.2451 14.2484 25.2451 27.3347 25.2451 40.4202C25.2451 40.8137 25.4851 41.4784 24.7652 41.4568C24.0454 41.4352 24.3333 40.7681 24.3333 40.3842C24.3141 33.8254 24.3093 27.2627 24.3189 20.696L24.3717 1.1278Z" fill="#7CB342"/>
</svg>
