<svg width="38" height="38" viewBox="0 0 38 38" fill="none" xmlns="http://www.w3.org/2000/svg">
<rect x="0.5" y="0.5" width="37" height="37" rx="7.5" stroke="#424242"/>
<g clip-path="url(#clip0_289_350)">
<path d="M19.3935 9.86656C20.3745 9.85156 21.348 9.85905 22.3215 9.85156C22.3814 10.999 22.7933 12.169 23.632 12.979C24.4708 13.8115 25.654 14.194 26.8072 14.3215V17.344C25.7289 17.3065 24.643 17.0815 23.662 16.6165C23.2351 16.4215 22.8383 16.174 22.4488 15.919C22.4413 18.109 22.4563 20.2989 22.4339 22.4814C22.374 23.5314 22.0295 24.5739 21.4229 25.4364C20.4419 26.8763 18.742 27.8138 16.9971 27.8438C15.9263 27.9038 14.8554 27.6113 13.9418 27.0713C12.4291 26.1789 11.3657 24.5439 11.2084 22.7889C11.1934 22.4139 11.186 22.0389 11.2009 21.6714C11.3357 20.2464 12.0397 18.8814 13.133 17.9514C14.3761 16.8715 16.1135 16.354 17.7385 16.6615C17.7535 17.7714 17.7085 18.8814 17.7085 19.9914C16.9672 19.7514 16.0985 19.8189 15.447 20.2689C14.9752 20.5764 14.6157 21.0489 14.4285 21.5814C14.2713 21.9639 14.3162 22.3839 14.3237 22.7889C14.5034 24.0189 15.6866 25.0539 16.9447 24.9414C17.7834 24.9339 18.5847 24.4464 19.0191 23.7339C19.1613 23.4864 19.3186 23.2314 19.3261 22.9389C19.401 21.5964 19.371 20.2614 19.3785 18.9189C19.386 15.8965 19.371 12.8815 19.3935 9.86654L19.3935 9.86656Z" fill="#424242"/>
</g>
<defs>
<clipPath id="clip0_289_350">
<rect width="18" height="18" fill="white" transform="translate(10 10)"/>
</clipPath>
</defs>
</svg>
