<svg preserveAspectRatio="xMidYMid meet" width="158" height="64" viewBox="0 0 157.652 64" fill="none" xmlns="http://www.w3.org/2000/svg">
<g id="Capa 19">
<path id="Vector" d="M70.7739 12.0937V16.4824H66.6083V42.9517H62.1499V16.4824H57.9915V12.0937H70.7739Z" fill="#FFFFFF"/>
<path id="Vector_2" d="M87.1051 32.0002L88.5449 42.9421H84.0433L83.1795 36.4009H78.6348L77.7469 42.9517H73.2742L74.7139 32.0554L77.8645 12.0937H83.9641L87.1051 32.0002ZM82.6084 32.0002L80.9095 19.1699L79.2131 32.0002H82.6084Z" fill="#FFFFFF"/>
<path id="Vector_3" d="M102.829 33.2263L108.003 12.0937H112.451V42.9517H108.192V25.6318L104.382 42.9517H101.368L97.4519 25.6414V42.9517H93.1448V12.0937H97.5935L102.829 33.2263Z" fill="#FFFFFF"/>
<path id="Vector_4" d="M128.156 33.2263L133.33 12.0937H137.781V42.9517H133.519V25.6318L129.714 42.9517H126.697L122.784 25.6414V42.9517H118.465V12.0937H122.916L128.156 33.2263Z" fill="#FFFFFF"/>
<path id="Vector_5" d="M156.212 32.0002L157.652 42.9421H153.155L152.291 36.4009H147.746L146.866 42.9517H142.386L143.825 32.0554L146.976 12.0937H153.076L156.212 32.0002ZM151.715 32.0002L150.016 19.1699L148.32 32.0002H151.715Z" fill="#FFFFFF"/>
<path id="Vector_6" d="M102.829 33.2263L108.003 12.0937H112.451V42.9517H108.192V25.6318L104.382 42.9517H101.368L97.4519 25.6414V42.9517H93.1448V12.0937H97.5935L102.829 33.2263Z" fill="#FFFFFF"/>
<path id="Vector_7" d="M128.156 33.2263L133.33 12.0937H137.781V42.9517H133.519V25.6318L129.714 42.9517H126.697L122.784 25.6414V42.9517H118.465V12.0937H122.916L128.156 33.2263Z" fill="#FFFFFF"/>
<path id="Vector_8" d="M156.212 32.0002L157.652 42.9421H153.155L152.291 36.4009H147.746L146.866 42.9517H142.386L143.825 32.0554L146.976 12.0937H153.076L156.212 32.0002ZM151.715 32.0002L150.016 19.1699L148.32 32.0002H151.715Z" fill="#FFFFFF"/>
<path id="Vector_9" d="M64.4608 56.5618C63.7721 56.5696 63.0881 56.4467 62.4452 56.1995C61.8498 55.9708 61.3063 55.6248 60.8471 55.1821C60.3961 54.7441 60.0385 54.2192 59.7961 53.6392C59.2971 52.3948 59.2971 51.0059 59.7961 49.7615C60.0398 49.1839 60.4001 48.6627 60.8543 48.2306C61.317 47.7888 61.8626 47.443 62.4596 47.2132C63.1017 46.9662 63.7849 46.8433 64.4728 46.8509C65.155 46.8423 65.8331 46.9578 66.474 47.1916C67.0659 47.41 67.5972 47.7662 68.0241 48.2306L67.3954 48.8713C67.0236 48.4897 66.571 48.1961 66.0709 48.0123C65.5707 47.8364 65.0438 47.7487 64.5136 47.7531C63.9561 47.7463 63.4023 47.8456 62.8819 48.0459C62.4006 48.2324 61.9616 48.5135 61.5907 48.8724C61.2198 49.2314 60.9245 49.661 60.7223 50.1359C60.3127 51.1445 60.3127 52.2731 60.7223 53.2817C60.9224 53.7587 61.2169 54.1903 61.588 54.5507C61.9591 54.9111 62.3992 55.1928 62.8819 55.3788C63.3988 55.5764 63.9483 55.6749 64.5016 55.6692C65.0279 55.6738 65.5514 55.5927 66.0517 55.4292C66.5551 55.2533 67.0138 54.969 67.3954 54.5966L67.9689 55.3596C67.5021 55.7662 66.9588 56.0754 66.3708 56.2691C65.7542 56.4692 65.1091 56.5681 64.4608 56.5618ZM66.9995 55.2229V51.7004H67.9593V55.3452L66.9995 55.2229Z" fill="#FFFFFF"/>
<path id="Vector_10" d="M82.2654 56.4802V46.9205H85.8431C86.5593 46.9023 87.2713 47.0348 87.9331 47.3092C88.483 47.541 88.9515 47.931 89.2792 48.4298C89.6085 48.9597 89.7753 49.5745 89.7591 50.1982C89.774 50.8127 89.6071 51.4179 89.2792 51.9379C88.9522 52.4372 88.4834 52.8274 87.9331 53.0585C87.2713 53.3329 86.5593 53.4653 85.8431 53.4472H82.8269L83.278 52.9841V56.4802H82.2654ZM83.278 53.0657L82.8269 52.5858H85.8167C86.7765 52.5858 87.5027 52.3762 87.9955 51.9571C88.231 51.7267 88.4181 51.4516 88.5458 51.1479C88.6736 50.8442 88.7394 50.5181 88.7394 50.1886C88.7394 49.8592 88.6736 49.533 88.5458 49.2293C88.4181 48.9257 88.231 48.6505 87.9955 48.4202C87.4987 48.0026 86.7717 47.7915 85.8167 47.7915H82.8269L83.278 47.3116V53.0657ZM88.7969 56.4802L86.3374 53.0105H87.4292L89.9031 56.4802H88.7969Z" fill="#FFFFFF"/>
<path id="Vector_11" d="M107.76 56.5618C107.076 56.5688 106.397 56.4458 105.759 56.1995C105.163 55.9705 104.62 55.6218 104.163 55.1749C103.714 54.7353 103.356 54.2108 103.11 53.632C102.611 52.3926 102.611 51.0081 103.11 49.7687C103.356 49.1898 103.714 48.6654 104.163 48.2258C104.618 47.7794 105.16 47.4308 105.754 47.2012C107.044 46.7181 108.465 46.7181 109.754 47.2012C110.346 47.4353 110.886 47.7853 111.34 48.2306C111.792 48.6679 112.15 49.193 112.391 49.7735C112.894 51.0173 112.894 52.4074 112.391 53.6512C112.149 54.23 111.792 54.7533 111.34 55.1893C110.883 55.6308 110.342 55.9767 109.75 56.2067C109.115 56.4504 108.44 56.5709 107.76 56.5618ZM107.76 55.6596C108.304 55.6646 108.844 55.5653 109.351 55.3668C109.826 55.1784 110.258 54.895 110.621 54.5342C110.98 54.1744 111.266 53.7471 111.46 53.2768C111.86 52.2639 111.86 51.1368 111.46 50.1238C111.267 49.6532 110.981 49.2258 110.621 48.8665C110.258 48.5056 109.826 48.2223 109.351 48.0339C108.845 47.8343 108.305 47.7348 107.76 47.7411C107.214 47.7353 106.671 47.8347 106.162 48.0339C105.684 48.221 105.25 48.5044 104.886 48.8665C104.139 49.6208 103.721 50.6391 103.721 51.7003C103.721 52.7615 104.139 53.7799 104.886 54.5342C105.25 54.8962 105.684 55.1796 106.162 55.3668C106.671 55.5679 107.213 55.6705 107.76 55.6692V55.6596Z" fill="#FFFFFF"/>
<path id="Vector_12" d="M130.333 56.5618C129.111 56.5618 128.151 56.2115 127.453 55.5108C126.756 54.8101 126.406 53.7703 126.402 52.3914V46.9205H127.417V52.3554C127.417 53.4848 127.672 54.3174 128.183 54.8533C128.693 55.3892 129.413 55.658 130.342 55.6596C131.28 55.6596 132.004 55.3908 132.514 54.8533C133.024 54.3158 133.279 53.4832 133.277 52.3554V46.9205H134.261V52.3962C134.261 53.7703 133.913 54.8101 133.217 55.5156C132.521 56.2211 131.56 56.5698 130.333 56.5618Z" fill="#FFFFFF"/>
<path id="Vector_13" d="M148.74 56.4802V46.9205H152.317C153.033 46.9023 153.745 47.0348 154.407 47.3092C154.957 47.541 155.424 47.9311 155.751 48.4298C156.08 48.9597 156.247 49.5745 156.231 50.1982C156.246 50.8127 156.079 51.4179 155.751 51.9379C155.424 52.4381 154.957 52.8304 154.407 53.0657C153.747 53.3449 153.034 53.4798 152.317 53.4616H149.299L149.75 52.9817V56.4778L148.74 56.4802ZM149.75 53.0657L149.299 52.5738H152.291C153.251 52.5738 153.971 52.3674 154.467 51.9523C154.718 51.7365 154.915 51.4661 155.044 51.162C155.174 50.8579 155.232 50.5282 155.214 50.1982C155.232 49.865 155.175 49.5319 155.046 49.2242C154.916 48.9165 154.718 48.6424 154.467 48.4226C153.973 48.005 153.246 47.7939 152.291 47.7939H149.299L149.75 47.314V53.0657Z" fill="#FFFFFF"/>
<path id="Vector_14" d="M64.4608 56.5618C63.7721 56.5696 63.0881 56.4467 62.4452 56.1995C61.8498 55.9708 61.3063 55.6248 60.8471 55.1821C60.3961 54.7441 60.0385 54.2192 59.7961 53.6392C59.2971 52.3948 59.2971 51.0059 59.7961 49.7615C60.0398 49.1839 60.4001 48.6627 60.8543 48.2306C61.317 47.7888 61.8626 47.443 62.4596 47.2132C63.1017 46.9662 63.7849 46.8433 64.4728 46.8509C65.155 46.8423 65.8331 46.9578 66.474 47.1916C67.0659 47.41 67.5972 47.7662 68.0241 48.2306L67.3954 48.8713C67.0236 48.4897 66.571 48.1961 66.0709 48.0123C65.5707 47.8364 65.0438 47.7487 64.5136 47.7531C63.9561 47.7463 63.4023 47.8456 62.8819 48.0459C62.4006 48.2324 61.9616 48.5135 61.5907 48.8724C61.2198 49.2314 60.9245 49.661 60.7223 50.1359C60.3127 51.1445 60.3127 52.2731 60.7223 53.2817C60.9224 53.7587 61.2169 54.1903 61.588 54.5507C61.9591 54.9111 62.3992 55.1928 62.8819 55.3788C63.3988 55.5764 63.9483 55.6749 64.5016 55.6692C65.0279 55.6738 65.5514 55.5927 66.0517 55.4292C66.5551 55.2533 67.0138 54.969 67.3954 54.5966L67.9689 55.3596C67.5021 55.7662 66.9588 56.0754 66.3708 56.2691C65.7542 56.4692 65.1091 56.5681 64.4608 56.5618ZM66.9995 55.2229V51.7004H67.9593V55.3452L66.9995 55.2229Z" fill="#FFFFFF"/>
<path id="Vector_15" d="M82.2654 56.4802V46.9205H85.8431C86.5593 46.9023 87.2713 47.0348 87.9331 47.3092C88.483 47.541 88.9515 47.931 89.2792 48.4298C89.6085 48.9597 89.7753 49.5745 89.7591 50.1982C89.774 50.8127 89.6071 51.4179 89.2792 51.9379C88.9522 52.4372 88.4834 52.8274 87.9331 53.0585C87.2713 53.3329 86.5593 53.4653 85.8431 53.4472H82.8269L83.278 52.9841V56.4802H82.2654ZM83.278 53.0657L82.8269 52.5858H85.8167C86.7765 52.5858 87.5027 52.3762 87.9955 51.9571C88.231 51.7267 88.4181 51.4516 88.5458 51.1479C88.6736 50.8442 88.7394 50.5181 88.7394 50.1886C88.7394 49.8592 88.6736 49.533 88.5458 49.2293C88.4181 48.9257 88.231 48.6505 87.9955 48.4202C87.4987 48.0026 86.7717 47.7915 85.8167 47.7915H82.8269L83.278 47.3116V53.0657ZM88.7969 56.4802L86.3374 53.0105H87.4292L89.9031 56.4802H88.7969Z" fill="#FFFFFF"/>
<path id="Vector_16" d="M107.76 56.5618C107.076 56.5688 106.397 56.4458 105.759 56.1995C105.163 55.9705 104.62 55.6218 104.163 55.1749C103.714 54.7353 103.356 54.2108 103.11 53.632C102.611 52.3926 102.611 51.0081 103.11 49.7687C103.356 49.1898 103.714 48.6654 104.163 48.2258C104.618 47.7794 105.16 47.4308 105.754 47.2012C107.044 46.7181 108.465 46.7181 109.754 47.2012C110.346 47.4353 110.886 47.7853 111.34 48.2306C111.792 48.6679 112.15 49.193 112.391 49.7735C112.894 51.0173 112.894 52.4074 112.391 53.6512C112.149 54.23 111.792 54.7533 111.34 55.1893C110.883 55.6308 110.342 55.9767 109.75 56.2067C109.115 56.4504 108.44 56.5709 107.76 56.5618ZM107.76 55.6596C108.304 55.6646 108.844 55.5653 109.351 55.3668C109.826 55.1784 110.258 54.895 110.621 54.5342C110.98 54.1744 111.266 53.7471 111.46 53.2768C111.86 52.2639 111.86 51.1368 111.46 50.1238C111.267 49.6532 110.981 49.2258 110.621 48.8665C110.258 48.5056 109.826 48.2223 109.351 48.0339C108.845 47.8343 108.305 47.7348 107.76 47.7411C107.214 47.7353 106.671 47.8347 106.162 48.0339C105.684 48.221 105.25 48.5044 104.886 48.8665C104.139 49.6208 103.721 50.6391 103.721 51.7003C103.721 52.7615 104.139 53.7799 104.886 54.5342C105.25 54.8962 105.684 55.1796 106.162 55.3668C106.671 55.5679 107.213 55.6705 107.76 55.6692V55.6596Z" fill="#FFFFFF"/>
<path id="Vector_17" d="M130.333 56.5618C129.111 56.5618 128.151 56.2115 127.453 55.5108C126.756 54.8101 126.406 53.7703 126.402 52.3914V46.9205H127.417V52.3554C127.417 53.4848 127.672 54.3174 128.183 54.8533C128.693 55.3892 129.413 55.658 130.342 55.6596C131.28 55.6596 132.004 55.3908 132.514 54.8533C133.024 54.3158 133.279 53.4832 133.277 52.3554V46.9205H134.261V52.3962C134.261 53.7703 133.913 54.8101 133.217 55.5156C132.521 56.2211 131.56 56.5698 130.333 56.5618Z" fill="#FFFFFF"/>
<path id="Vector_18" d="M148.74 56.4802V46.9205H152.317C153.033 46.9023 153.745 47.0348 154.407 47.3092C154.957 47.541 155.424 47.9311 155.751 48.4298C156.08 48.9597 156.247 49.5745 156.231 50.1982C156.246 50.8127 156.079 51.4179 155.751 51.9379C155.424 52.4381 154.957 52.8304 154.407 53.0657C153.747 53.3449 153.034 53.4798 152.317 53.4616H149.299L149.75 52.9817V56.4778L148.74 56.4802ZM149.75 53.0657L149.299 52.5738H152.291C153.251 52.5738 153.971 52.3674 154.467 51.9523C154.718 51.7365 154.915 51.4661 155.044 51.162C155.174 50.8579 155.232 50.5282 155.214 50.1982C155.232 49.865 155.175 49.5319 155.046 49.2242C154.916 48.9165 154.718 48.6424 154.467 48.4226C153.973 48.005 153.246 47.7939 152.291 47.7939H149.299L149.75 47.314V53.0657Z" fill="#FFFFFF"/>
<path id="Vector_19" d="M20.7388 59.5084C20.7917 59.5681 20.8271 59.6411 20.8412 59.7195C20.8553 59.798 20.8476 59.8788 20.8189 59.9531C20.7901 60.0275 20.7415 60.0924 20.6783 60.141C20.615 60.1895 20.5397 60.2197 20.4605 60.2283C19.6374 60.2979 18.9272 59.9211 18.2169 59.6836C13.5018 58.1047 9.36022 55.6452 6.3848 51.5516C4.65234 49.1664 3.85329 46.4862 3.87729 43.4915C3.94687 34.2749 3.91808 25.0583 3.92048 15.8417C3.92048 15.2778 3.88209 14.7139 3.8317 14.162C3.7957 13.7421 3.87489 13.3006 4.3428 13.2886C4.81071 13.2766 4.8443 13.7277 4.8467 14.1069C4.8467 16.0745 4.87789 18.0421 4.87549 20.0097C4.87549 27.7986 4.97627 35.5923 4.78911 43.3788C4.66913 48.2738 7.05907 51.6596 10.5984 54.491C13.4286 56.7228 16.6999 58.329 20.1965 59.2037C20.4021 59.2529 20.5899 59.3584 20.7388 59.5084Z" fill="#FFFFFF"/>
<path id="Vector_20" d="M40.8469 29.2167V14.5796C40.8469 14.414 40.8325 14.2508 40.8469 14.0997C40.8805 13.7445 40.8469 13.2526 41.3484 13.2886C41.7132 13.315 41.754 13.7493 41.7588 14.0805C41.7732 14.8987 41.7756 15.7193 41.7732 16.54C41.7732 25.3511 41.7276 34.1622 41.754 42.9732C41.7684 47.1628 40.2015 50.7261 37.3796 53.6704C35.3304 55.806 32.7581 57.3153 30.025 58.503C28.5853 59.1269 25.5763 59.9715 25.5763 59.9715C25.5763 59.9715 24.7245 60.2115 24.6165 59.7892C24.4629 59.2685 25.0268 59.3525 25.3364 59.2253C27.5751 58.3231 29.9123 57.5984 32.0095 56.437C35.2376 54.657 37.8743 51.9711 39.5944 48.7105C40.7318 46.5917 40.8541 44.317 40.8445 41.9918C40.8253 37.7303 40.8445 33.4663 40.8445 29.2047L40.8469 29.2167Z" fill="#FFFFFF"/>
<path id="Vector_21" d="M0.928269 31.0092C0.928269 35.6811 0.793896 40.3673 0.973861 45.0248C1.10104 48.3146 2.41358 51.242 4.51077 53.8599C8.06448 58.2943 12.8084 60.7082 18.1017 62.2895C18.8672 62.5294 19.6782 62.5438 20.4269 62.899C20.7604 63.0597 21.1779 63.0117 21.0939 63.542C20.986 64.2139 20.4269 63.9716 20.1197 63.89C18.7568 63.5372 17.4083 63.1221 16.0669 62.6902C10.9823 61.0849 6.66075 58.3087 3.45738 54.0159C1.41537 51.2804 -0.0627379 48.1226 0.0020495 44.7153C0.172416 36.233 -0.0291444 27.765 0.119627 19.2922C0.131624 18.5124 0.119627 17.7349 0.0908322 16.9551C0.0908322 16.5688 0.0908322 16.0673 0.510751 16.0577C1.04585 16.0433 0.990657 16.5784 0.990657 16.9887C0.990657 20.7208 0.985058 24.4512 0.973861 28.1801V31.0092H0.928269Z" fill="#FFFFFF"/>
<path id="Vector_22" d="M7.98291 11.0739C7.98291 10.7019 7.92532 10.1476 8.34524 10.1668C8.87314 10.1884 8.82514 10.7691 8.84194 11.2154C9.01231 20.3984 9.08189 29.5815 8.84194 38.7645C8.79635 40.6457 8.64518 42.5581 8.91393 44.4034C9.31705 47.1436 11.1287 49.1233 13.1635 50.8821C15.3087 52.7274 17.8042 53.9631 20.4245 54.9613C20.8228 55.1125 21.2811 55.2013 21.058 55.7604C20.8348 56.3195 20.4101 56.0459 20.0334 55.9043C15.1287 54.0471 10.8384 51.4196 8.47961 46.4694C8.06772 45.5942 7.85466 44.6387 7.85573 43.6715C7.85573 38.2614 7.85573 32.8504 7.85573 27.4387L7.98291 11.0739Z" fill="#FFFFFF"/>
<path id="Vector_23" d="M45.5117 20.2089C45.5117 19.1003 45.5117 17.9941 45.4877 16.8879C45.4877 16.5328 45.3365 16.2281 44.931 16.2041C44.4055 16.1681 44.4967 16.5856 44.4943 16.8903C44.4799 17.9893 44.6383 19.0883 44.6431 20.1777C44.6879 27.8866 44.6879 35.5971 44.6431 43.3092C44.5999 49.1569 41.8716 53.6824 37.4445 57.2889C35.7806 58.6178 33.9299 59.694 31.9519 60.4827C29.6915 61.4563 27.3664 62.2725 24.9933 62.9254C24.7005 63.0022 24.2374 62.8966 24.3286 63.4053C24.4198 63.914 25.1445 63.6788 25.1445 63.6788C25.1445 63.6788 27.1001 63.2445 28.0527 62.959C32.6958 61.5816 36.931 59.5108 40.3407 55.9259C43.5362 52.6504 45.3602 48.2781 45.4397 43.7027C45.5645 39.4004 45.4661 35.0908 45.4661 30.786L45.5117 20.2089Z" fill="#FFFFFF"/>
<path id="Vector_24" d="M11.9998 25.1543C11.9998 19.373 11.9998 13.5925 11.9998 7.81286C11.9998 7.44813 11.7814 6.85305 12.4485 6.90104C13.0052 6.93223 12.9284 7.47213 12.9284 7.86085C12.9452 10.0732 12.9644 12.288 12.9644 14.5004C12.974 23.8889 12.974 33.2767 12.9644 42.6637C12.9826 43.479 13.26 44.2673 13.7563 44.9144C15.364 47.23 17.4923 48.9361 19.9951 50.2054C20.427 50.4262 21.2596 50.6133 20.9909 51.1916C20.6789 51.8587 20.0023 51.3284 19.5271 51.1028C16.6063 49.7233 14.1779 47.4825 12.5685 44.6817C12.1938 44.0555 11.9988 43.3382 12.0046 42.6085C12.0286 36.7872 12.0046 30.966 12.0046 25.1447L11.9998 25.1543Z" fill="#FFFFFF"/>
<path id="Vector_25" d="M33.6796 25.0343C33.6796 30.3661 33.6412 35.6979 33.6964 41.0272C33.7228 43.7123 32.4294 45.7903 30.7665 47.6427C29.6388 48.8977 28.1534 49.8023 26.6441 50.5918C26.4291 50.6916 26.2088 50.7797 25.9843 50.8557C25.9843 50.8557 25.0964 51.2924 24.9093 50.7381C24.7605 50.2846 25.3292 50.2582 25.6291 50.1095C28.0856 48.9386 30.1707 47.1117 31.6544 44.8305C32.393 43.6558 32.7756 42.2923 32.7557 40.9049C32.7413 30.0382 32.7485 19.1715 32.7773 8.30479C32.7773 7.82489 32.4702 6.98505 33.1421 6.95385C34.0011 6.91306 33.6724 7.80809 33.6748 8.30959C33.6988 13.8861 33.6892 19.4626 33.6892 25.0391L33.6796 25.0343Z" fill="#FFFFFF"/>
<path id="Vector_26" d="M16.1533 22.3013C16.1533 16.272 16.1533 10.2412 16.1533 4.20879C16.1533 3.84646 15.9134 3.21538 16.4893 3.20098C17.2091 3.17939 16.89 3.87285 16.9044 4.25198C17.3003 15.8129 17.0387 27.3787 17.0387 38.942C17.0387 41.6055 18.2169 43.3212 20.2061 44.7441C20.4903 44.9018 20.758 45.0875 21.0052 45.2984C21.1034 45.4072 21.1587 45.5479 21.1609 45.6945C21.1631 45.841 21.112 45.9833 21.0172 46.095C20.8372 46.311 20.5661 46.239 20.3645 46.0734C18.0825 44.2042 15.9901 42.359 16.1077 38.9132C16.2925 33.3943 16.1557 27.8394 16.1557 22.3013H16.1533Z" fill="#FFFFFF"/>
<path id="Vector_27" d="M37.6748 11.501C37.6748 11.213 37.6748 10.9251 37.6604 10.6395C37.646 10.354 37.6028 10.0325 37.1997 10.0588C36.8781 10.0804 36.8445 10.3468 36.8326 10.5987C36.8326 10.8027 36.8326 11.0091 36.8326 11.213C36.8166 21.6302 36.8014 32.0474 36.787 42.4646C36.766 44.2173 36.2557 45.9294 35.3136 47.4076C33.0413 51.1605 29.4588 53.1665 25.5499 54.719C25.07 54.9085 24.2158 54.9109 24.3982 55.4868C24.6069 56.1419 25.9939 55.6812 25.9939 55.6812C26.0264 55.6575 26.061 55.6367 26.097 55.6188C29.3412 54.1791 32.4798 52.5786 34.8265 49.8263C36.3718 48.0123 37.5476 45.9175 37.5908 43.4868C37.6844 38.1574 37.6196 32.8256 37.6196 27.4939L37.6748 11.501Z" fill="#FFFFFF"/>
<path id="Vector_28" d="M28.6693 4.31915C28.6693 3.91842 28.4029 3.23216 29.022 3.22256C29.4755 3.22256 29.4731 3.88003 29.4731 4.33594C29.4731 8.89506 29.4923 13.4374 29.4923 17.9869C29.4923 25.1207 29.4275 32.2545 29.4923 39.3859C29.5163 41.8646 26.9152 44.8833 25.1251 45.9223C24.9116 46.047 24.5277 46.1094 24.3525 45.8167C24.1437 45.4639 24.3981 45.1832 24.6644 44.9816C25.3723 44.4441 26.1306 43.993 26.7784 43.35C28.007 42.131 28.5277 40.6793 28.5277 38.9972V21.7806L28.6693 4.31915Z" fill="#FFFFFF"/>
<path id="Vector_29" d="M20.3765 20.8615C20.3765 25.4095 20.3765 29.9574 20.3765 34.5053C20.3765 36.5545 20.3501 38.6037 20.3765 40.6529C20.3765 40.948 20.1366 41.4687 20.7869 41.4447C21.3532 41.4255 21.2452 40.984 21.2668 40.6313C21.2668 40.4273 21.2668 40.221 21.2668 40.017C21.2796 27.725 21.2908 15.4322 21.3004 3.13859C21.3004 2.31795 21.3004 1.49971 21.3004 0.679068C21.286 0.333535 21.2452 0 20.7845 0C20.3238 0 20.3046 0.36233 20.3046 0.703063C20.3046 0.988608 20.3046 1.27655 20.3046 1.5621L20.3765 20.8615Z" fill="#FFFFFF"/>
<path id="Vector_30" d="M24.3717 1.12776C24.3717 0.801428 24.0262 0.203944 24.7196 0.167951C25.4635 0.131958 25.2427 0.760636 25.2451 1.16136C25.2451 14.2484 25.2451 27.3347 25.2451 40.4201C25.2451 40.8136 25.4851 41.4783 24.7652 41.4567C24.0454 41.4351 24.3333 40.7681 24.3333 40.3841C24.3141 33.8254 24.3093 27.2627 24.3189 20.696L24.3717 1.12776Z" fill="#FFFFFF"/>
<path id="Vector_31" d="M20.7388 59.5084C20.7917 59.5681 20.8271 59.6411 20.8412 59.7195C20.8553 59.798 20.8476 59.8788 20.8189 59.9531C20.7901 60.0275 20.7415 60.0924 20.6783 60.141C20.615 60.1895 20.5397 60.2197 20.4605 60.2283C19.6374 60.2979 18.9272 59.9211 18.2169 59.6836C13.5018 58.1047 9.36022 55.6452 6.3848 51.5516C4.65234 49.1664 3.85329 46.4862 3.87729 43.4915C3.94687 34.2749 3.91808 25.0583 3.92048 15.8417C3.92048 15.2778 3.88209 14.7139 3.8317 14.162C3.7957 13.7421 3.87489 13.3006 4.3428 13.2886C4.81071 13.2766 4.8443 13.7277 4.8467 14.1069C4.8467 16.0745 4.87789 18.0421 4.87549 20.0097C4.87549 27.7986 4.97627 35.5923 4.78911 43.3788C4.66913 48.2738 7.05907 51.6596 10.5984 54.491C13.4286 56.7228 16.6999 58.329 20.1965 59.2037C20.4021 59.2529 20.5899 59.3584 20.7388 59.5084Z" fill="#FFFFFF"/>
<path id="Vector_32" d="M40.8469 29.2167V14.5796C40.8469 14.414 40.8325 14.2508 40.8469 14.0997C40.8805 13.7445 40.8469 13.2526 41.3484 13.2886C41.7132 13.315 41.754 13.7493 41.7588 14.0805C41.7732 14.8987 41.7756 15.7193 41.7732 16.54C41.7732 25.3511 41.7276 34.1622 41.754 42.9732C41.7684 47.1628 40.2015 50.7261 37.3796 53.6704C35.3304 55.806 32.7581 57.3153 30.025 58.503C28.5853 59.1269 25.5763 59.9715 25.5763 59.9715C25.5763 59.9715 24.7245 60.2115 24.6165 59.7892C24.4629 59.2685 25.0268 59.3525 25.3364 59.2253C27.5751 58.3231 29.9123 57.5984 32.0095 56.437C35.2376 54.657 37.8743 51.9711 39.5944 48.7105C40.7318 46.5917 40.8541 44.317 40.8445 41.9918C40.8253 37.7303 40.8445 33.4663 40.8445 29.2047L40.8469 29.2167Z" fill="#FFFFFF"/>
<path id="Vector_33" d="M0.928269 31.0092C0.928269 35.6811 0.793896 40.3673 0.973861 45.0248C1.10104 48.3146 2.41358 51.242 4.51077 53.8599C8.06448 58.2943 12.8084 60.7082 18.1017 62.2895C18.8672 62.5294 19.6782 62.5438 20.4269 62.899C20.7604 63.0597 21.1779 63.0117 21.0939 63.542C20.986 64.2139 20.4269 63.9716 20.1197 63.89C18.7568 63.5372 17.4083 63.1221 16.0669 62.6902C10.9823 61.0849 6.66075 58.3087 3.45738 54.0159C1.41537 51.2804 -0.0627379 48.1226 0.0020495 44.7153C0.172416 36.233 -0.0291444 27.765 0.119627 19.2922C0.131624 18.5124 0.119627 17.7349 0.0908322 16.9551C0.0908322 16.5688 0.0908322 16.0673 0.510751 16.0577C1.04585 16.0433 0.990657 16.5784 0.990657 16.9887C0.990657 20.7208 0.985058 24.4512 0.973861 28.1801V31.0092H0.928269Z" fill="#FFFFFF"/>
<path id="Vector_34" d="M7.98291 11.0739C7.98291 10.7019 7.92532 10.1476 8.34524 10.1668C8.87314 10.1884 8.82514 10.7691 8.84194 11.2154C9.01231 20.3984 9.08189 29.5815 8.84194 38.7645C8.79635 40.6457 8.64518 42.5581 8.91393 44.4034C9.31705 47.1436 11.1287 49.1233 13.1635 50.8821C15.3087 52.7274 17.8042 53.9631 20.4245 54.9613C20.8228 55.1125 21.2811 55.2013 21.058 55.7604C20.8348 56.3195 20.4101 56.0459 20.0334 55.9043C15.1287 54.0471 10.8384 51.4196 8.47961 46.4694C8.06772 45.5942 7.85466 44.6387 7.85573 43.6715C7.85573 38.2614 7.85573 32.8504 7.85573 27.4387L7.98291 11.0739Z" fill="#FFFFFF"/>
<path id="Vector_35" d="M45.5117 20.2089C45.5117 19.1003 45.5117 17.9941 45.4877 16.8879C45.4877 16.5328 45.3365 16.2281 44.931 16.2041C44.4055 16.1681 44.4967 16.5856 44.4943 16.8903C44.4799 17.9893 44.6383 19.0883 44.6431 20.1777C44.6879 27.8866 44.6879 35.5971 44.6431 43.3092C44.5999 49.1569 41.8716 53.6824 37.4445 57.2889C35.7806 58.6178 33.9299 59.694 31.9519 60.4827C29.6915 61.4563 27.3664 62.2725 24.9933 62.9254C24.7005 63.0022 24.2374 62.8966 24.3286 63.4053C24.4198 63.914 25.1445 63.6788 25.1445 63.6788C25.1445 63.6788 27.1001 63.2445 28.0527 62.959C32.6958 61.5816 36.931 59.5108 40.3407 55.9259C43.5362 52.6504 45.3602 48.2781 45.4397 43.7027C45.5645 39.4004 45.4661 35.0908 45.4661 30.786L45.5117 20.2089Z" fill="#FFFFFF"/>
<path id="Vector_36" d="M11.9998 25.1543C11.9998 19.373 11.9998 13.5925 11.9998 7.81286C11.9998 7.44813 11.7814 6.85305 12.4485 6.90104C13.0052 6.93223 12.9284 7.47213 12.9284 7.86085C12.9452 10.0732 12.9644 12.288 12.9644 14.5004C12.974 23.8889 12.974 33.2767 12.9644 42.6637C12.9826 43.479 13.26 44.2673 13.7563 44.9144C15.364 47.23 17.4923 48.9361 19.9951 50.2054C20.427 50.4262 21.2596 50.6133 20.9909 51.1916C20.6789 51.8587 20.0023 51.3284 19.5271 51.1028C16.6063 49.7233 14.1779 47.4825 12.5685 44.6817C12.1938 44.0555 11.9988 43.3382 12.0046 42.6085C12.0286 36.7872 12.0046 30.966 12.0046 25.1447L11.9998 25.1543Z" fill="#FFFFFF"/>
<path id="Vector_37" d="M33.6796 25.0343C33.6796 30.3661 33.6412 35.6979 33.6964 41.0272C33.7228 43.7123 32.4294 45.7903 30.7665 47.6427C29.6388 48.8977 28.1534 49.8023 26.6441 50.5918C26.4291 50.6916 26.2088 50.7797 25.9843 50.8557C25.9843 50.8557 25.0964 51.2924 24.9093 50.7381C24.7605 50.2846 25.3292 50.2582 25.6291 50.1095C28.0856 48.9386 30.1707 47.1117 31.6544 44.8305C32.393 43.6558 32.7756 42.2923 32.7557 40.9049C32.7413 30.0382 32.7485 19.1715 32.7773 8.30479C32.7773 7.82489 32.4702 6.98505 33.1421 6.95385C34.0011 6.91306 33.6724 7.80809 33.6748 8.30959C33.6988 13.8861 33.6892 19.4626 33.6892 25.0391L33.6796 25.0343Z" fill="#FFFFFF"/>
<path id="Vector_38" d="M16.1533 22.3013C16.1533 16.272 16.1533 10.2412 16.1533 4.20879C16.1533 3.84646 15.9134 3.21538 16.4893 3.20098C17.2091 3.17939 16.89 3.87285 16.9044 4.25198C17.3003 15.8129 17.0387 27.3787 17.0387 38.942C17.0387 41.6055 18.2169 43.3212 20.2061 44.7441C20.4903 44.9018 20.758 45.0875 21.0052 45.2984C21.1034 45.4072 21.1587 45.5479 21.1609 45.6945C21.1631 45.841 21.112 45.9833 21.0172 46.095C20.8372 46.311 20.5661 46.239 20.3645 46.0734C18.0825 44.2042 15.9901 42.359 16.1077 38.9132C16.2925 33.3943 16.1557 27.8394 16.1557 22.3013H16.1533Z" fill="#FFFFFF"/>
<path id="Vector_39" d="M37.6748 11.501C37.6748 11.213 37.6748 10.9251 37.6604 10.6395C37.646 10.354 37.6028 10.0325 37.1997 10.0588C36.8781 10.0804 36.8445 10.3468 36.8326 10.5987C36.8326 10.8027 36.8326 11.0091 36.8326 11.213C36.8166 21.6302 36.8014 32.0474 36.787 42.4646C36.766 44.2173 36.2557 45.9294 35.3136 47.4076C33.0413 51.1605 29.4588 53.1665 25.5499 54.719C25.07 54.9085 24.2158 54.9109 24.3982 55.4868C24.6069 56.1419 25.9939 55.6812 25.9939 55.6812C26.0264 55.6575 26.061 55.6367 26.097 55.6188C29.3412 54.1791 32.4798 52.5786 34.8265 49.8263C36.3718 48.0123 37.5476 45.9175 37.5908 43.4868C37.6844 38.1574 37.6196 32.8256 37.6196 27.4939L37.6748 11.501Z" fill="#FFFFFF"/>
<path id="Vector_40" d="M28.6693 4.31915C28.6693 3.91842 28.4029 3.23216 29.022 3.22256C29.4755 3.22256 29.4731 3.88003 29.4731 4.33594C29.4731 8.89506 29.4923 13.4374 29.4923 17.9869C29.4923 25.1207 29.4275 32.2545 29.4923 39.3859C29.5163 41.8646 26.9152 44.8833 25.1251 45.9223C24.9116 46.047 24.5277 46.1094 24.3525 45.8167C24.1437 45.4639 24.3981 45.1832 24.6644 44.9816C25.3723 44.4441 26.1306 43.993 26.7784 43.35C28.007 42.131 28.5277 40.6793 28.5277 38.9972V21.7806L28.6693 4.31915Z" fill="#FFFFFF"/>
<path id="Vector_41" d="M24.3717 1.12776C24.3717 0.801428 24.0262 0.203944 24.7196 0.167951C25.4635 0.131958 25.2427 0.760636 25.2451 1.16136C25.2451 14.2484 25.2451 27.3347 25.2451 40.4201C25.2451 40.8136 25.4851 41.4783 24.7652 41.4567C24.0454 41.4351 24.3333 40.7681 24.3333 40.3841C24.3141 33.8254 24.3093 27.2627 24.3189 20.696L24.3717 1.12776Z" fill="#FFFFFF"/>
</g>
</svg>
