<svg width="38" height="38" viewBox="0 0 38 38" fill="none" xmlns="http://www.w3.org/2000/svg">
<rect x="0.5" y="0.5" width="37" height="37" rx="7.5" stroke="#424242"/>
<g clip-path="url(#clip0_289_345)">
<path d="M19 11.6207C21.4047 11.6207 21.6895 11.6312 22.6352 11.6734C23.5141 11.7121 23.9887 11.8598 24.3051 11.9828C24.7234 12.1445 25.0258 12.3414 25.3387 12.6543C25.6551 12.9707 25.8484 13.2695 26.0137 13.6879C26.1367 14.0043 26.2844 14.4824 26.323 15.3578C26.3652 16.307 26.3758 16.5918 26.3758 18.993C26.3758 21.3941 26.3652 21.6824 26.323 22.6281C26.2844 23.507 26.1367 23.9816 26.0137 24.298C25.852 24.7164 25.6551 25.0188 25.3422 25.3316C25.0258 25.648 24.727 25.8414 24.3086 26.0066C23.9922 26.1297 23.5141 26.2773 22.6387 26.316C21.6895 26.3582 21.4047 26.3687 19.0035 26.3687C16.6023 26.3687 16.3141 26.3582 15.3684 26.316C14.4895 26.2773 14.0148 26.1297 13.6984 26.0066C13.2801 25.8449 12.9777 25.648 12.6648 25.3352C12.3484 25.0188 12.1551 24.7199 11.9898 24.3016C11.8668 23.9852 11.7191 23.507 11.6805 22.6316C11.6383 21.6824 11.6277 21.3977 11.6277 18.9965C11.6277 16.5953 11.6383 16.307 11.6805 15.3613C11.7191 14.4824 11.8668 14.0078 11.9898 13.6914C12.1516 13.273 12.3484 12.9707 12.6613 12.6578C12.9777 12.3414 13.2766 12.148 13.6949 11.9828C14.0113 11.8598 14.4895 11.7121 15.3648 11.6734C16.3105 11.6312 16.5953 11.6207 19 11.6207ZM19 10C16.5566 10 16.2508 10.0105 15.291 10.0527C14.3348 10.0949 13.6773 10.2496 13.1078 10.4711C12.5137 10.7031 12.0109 11.009 11.5117 11.5117C11.009 12.0109 10.7031 12.5137 10.4711 13.1043C10.2496 13.6773 10.0949 14.3312 10.0527 15.2875C10.0105 16.2508 10 16.5566 10 19C10 21.4434 10.0105 21.7492 10.0527 22.709C10.0949 23.6652 10.2496 24.3227 10.4711 24.8922C10.7031 25.4863 11.009 25.9891 11.5117 26.4883C12.0109 26.9875 12.5137 27.2969 13.1043 27.5254C13.6773 27.7469 14.3312 27.9016 15.2875 27.9438C16.2473 27.9859 16.5531 27.9965 18.9965 27.9965C21.4398 27.9965 21.7457 27.9859 22.7055 27.9438C23.6617 27.9016 24.3191 27.7469 24.8887 27.5254C25.4793 27.2969 25.982 26.9875 26.4812 26.4883C26.9805 25.9891 27.2898 25.4863 27.5184 24.8957C27.7398 24.3227 27.8945 23.6687 27.9367 22.7125C27.9789 21.7527 27.9895 21.4469 27.9895 19.0035C27.9895 16.5602 27.9789 16.2543 27.9367 15.2945C27.8945 14.3383 27.7398 13.6809 27.5184 13.1113C27.2969 12.5137 26.991 12.0109 26.4883 11.5117C25.9891 11.0125 25.4863 10.7031 24.8957 10.4746C24.3227 10.2531 23.6687 10.0984 22.7125 10.0563C21.7492 10.0105 21.4434 10 19 10Z" fill="#424242"/>
<path d="M19 14.377C16.4477 14.377 14.377 16.4477 14.377 19C14.377 21.5523 16.4477 23.623 19 23.623C21.5523 23.623 23.623 21.5523 23.623 19C23.623 16.4477 21.5523 14.377 19 14.377ZM19 21.9988C17.3441 21.9988 16.0012 20.6559 16.0012 19C16.0012 17.3441 17.3441 16.0012 19 16.0012C20.6559 16.0012 21.9988 17.3441 21.9988 19C21.9988 20.6559 20.6559 21.9988 19 21.9988Z" fill="#424242"/>
<path d="M24.8852 14.194C24.8852 14.7901 24.4019 15.2733 23.8059 15.2733C23.2098 15.2733 22.7266 14.7901 22.7266 14.194C22.7266 13.598 23.2098 13.1147 23.8059 13.1147C24.4019 13.1147 24.8852 13.598 24.8852 14.194Z" fill="#424242"/>
</g>
<defs>
<clipPath id="clip0_289_345">
<rect width="18" height="18" fill="white" transform="translate(10 10)"/>
</clipPath>
</defs>
</svg>
